<svg width="12" height="15" viewBox="0 0 12 15" fill="none" xmlns="http://www.w3.org/2000/svg">
<path d="M6 0.66748C7.5913 0.66748 9.11742 1.29962 10.2426 2.42484C11.3679 3.55006 12 5.07618 12 6.66748C12 9.15148 10.1067 11.7541 6.4 14.5341C6.2846 14.6207 6.14425 14.6675 6 14.6675C5.85575 14.6675 5.7154 14.6207 5.6 14.5341C1.89333 11.7541 0 9.15148 0 6.66748C0 5.07618 0.632141 3.55006 1.75736 2.42484C2.88258 1.29962 4.4087 0.66748 6 0.66748ZM6 4.66748C5.46957 4.66748 4.96086 4.87819 4.58579 5.25327C4.21071 5.62834 4 6.13705 4 6.66748C4 7.19791 4.21071 7.70662 4.58579 8.08169C4.96086 8.45677 5.46957 8.66748 6 8.66748C6.53043 8.66748 7.03914 8.45677 7.41421 8.08169C7.78929 7.70662 8 7.19791 8 6.66748C8 6.13705 7.78929 5.62834 7.41421 5.25327C7.03914 4.87819 6.53043 4.66748 6 4.66748Z" fill="white"/>
</svg>
