<svg width="18" height="18" viewBox="0 0 18 18" fill="none" xmlns="http://www.w3.org/2000/svg">
<path d="M6.31256 7.49992L9.00193 10.1893L11.6913 7.49992C11.9842 7.20706 12.459 7.20706 12.7519 7.49992C12.7885 7.53659 12.8206 7.57604 12.848 7.61759C13.0402 7.90874 13.0082 8.30437 12.7519 8.56064L9.53226 11.7803C9.39156 11.9209 9.20083 11.9999 9.00193 11.9999C8.80296 11.9999 8.61223 11.9209 8.47161 11.7803L5.25189 8.56064C4.959 8.26769 4.959 7.79287 5.25189 7.49992C5.28851 7.46334 5.32797 7.43131 5.36955 7.40385C5.66067 7.21164 6.05628 7.24367 6.31256 7.49992Z" fill="white"/>
</svg>
