<svg width="219" height="45" viewBox="0 0 219 45" fill="none" xmlns="http://www.w3.org/2000/svg">
<path fill-rule="evenodd" clip-rule="evenodd" d="M55.5 33.7155V13H72.561V33.7155H68.3936V16.9596H59.6663V33.7155H55.5ZM84.7513 21.7783H82.3862C80.4157 21.7783 79.4298 22.4716 79.4298 23.8279C79.4298 25.1572 80.3882 25.8213 82.3027 25.8213C83.1478 25.8213 83.9633 25.7671 84.7513 25.6284V21.7783ZM88.6088 18.6214V33.7144H84.7513V28.4776C84.0039 28.6119 83.2126 28.7885 82.2565 28.8156L79.0639 33.7144H74.7283L78.5418 28.2826C76.5416 27.4517 75.4888 26.0163 75.4888 23.7727C75.4888 20.6982 77.7681 18.6214 82.2741 18.6214H88.6088ZM114.68 19.8954C115.861 21.0308 116.452 22.5821 116.452 24.6036V33.7144H112.484V25.3229C112.484 23.0252 111.245 21.8064 109.414 21.8064C107.414 21.8064 106.036 23.2191 106.036 25.4345V33.7155H102.066V25.3522C102.066 23.1086 100.855 21.8064 98.9691 21.8064C97.0272 21.8064 95.6194 23.2191 95.6194 25.4627V33.7155H91.6497V18.6214H95.5347V20.7816C96.4073 19.2032 98.2086 18.1794 100.208 18.2065C102.122 18.2065 103.896 19.1208 104.713 20.865C105.839 19.2032 107.922 18.2065 110.202 18.2065C112.033 18.2065 113.524 18.7579 114.68 19.8954ZM147.536 29.2554C148.323 28.4245 148.718 27.4008 148.718 26.1831C148.718 24.9633 148.323 23.9395 147.536 23.1075C146.748 22.2777 145.733 21.8617 144.467 21.8617C143.228 21.8617 142.214 22.2777 141.427 23.1075C140.638 23.9395 140.244 24.9633 140.244 26.1831C140.244 27.4008 140.639 28.4256 141.427 29.2565C142.215 30.0874 143.228 30.5023 144.467 30.5023C145.733 30.5023 146.748 30.0874 147.536 29.2565M150.576 20.5324C152.012 22.0556 152.716 23.9395 152.716 26.1549C152.716 28.3703 151.984 30.2532 150.548 31.7774C149.113 33.2995 147.311 34.0741 145.142 34.0741C143.257 34.0741 141.516 33.2638 140.328 31.8294V39.9187H136.359V18.6214H140.3V20.6018C141.56 19.0548 143.228 18.2347 145.17 18.2347C147.339 18.2347 149.14 19.0093 150.576 20.5324ZM162.373 30.4753C163.583 30.4753 164.569 30.0593 165.385 29.2283C166.202 28.3703 166.624 27.3455 166.624 26.1549C166.624 24.9633 166.202 23.9395 165.386 23.1086C164.569 22.2777 163.583 21.8628 162.373 21.8628C161.162 21.8628 160.149 22.2777 159.332 23.1086C158.517 23.9395 158.122 24.9643 158.122 26.1549C158.122 27.3455 158.517 28.3703 159.332 29.2283C160.149 30.0593 161.162 30.4742 162.373 30.4742M156.461 20.5324C158.01 18.9811 159.981 18.2065 162.373 18.2065C164.766 18.2065 166.736 18.9811 168.286 20.5324C169.833 22.0556 170.594 23.9395 170.594 26.1549C170.594 28.3974 169.833 30.2813 168.286 31.8045C166.736 33.3266 164.766 34.1033 162.373 34.1033C159.981 34.1033 158.01 33.3266 156.461 31.8045C154.912 30.2813 154.153 28.3985 154.153 26.1549C154.153 23.9395 154.912 22.0556 156.461 20.5324ZM181.771 18.6214H185.742V33.7155H181.771V28.6347C180.609 29.2879 179.351 29.6162 178.364 29.6162C176.535 29.6162 175.183 29.2836 173.972 28.4808C172.763 27.6228 172.087 26.0163 172.087 23.6893V18.6214H176.028V23.413C176.028 25.1853 176.957 26.0715 178.816 26.0715C179.857 26.0715 180.745 25.9285 181.772 25.5244V18.6214H181.771ZM198.861 33.7155L192.752 26.7453V33.7155H188.782V18.5987H192.752V24.5873L198.326 18.6214H203.338L196.496 25.6122L203.732 33.7155H198.861Z" fill="white"/>
<path fill-rule="evenodd" clip-rule="evenodd" d="M213.771 23.1959C212.954 22.3368 211.94 21.9219 210.701 21.9219C209.435 21.9219 208.421 22.3368 207.604 23.1959C206.816 24.055 206.422 25.0787 206.422 26.2693C206.422 27.488 206.816 28.5129 207.633 29.372C208.45 30.23 209.463 30.6449 210.701 30.6449C211.94 30.6449 212.954 30.23 213.771 29.372C214.586 28.5129 215.01 27.488 215.01 26.2693C215.01 25.0787 214.586 24.055 213.771 23.1959ZM214.954 18.7369H218.725V33.8299H214.954V31.8365C213.635 33.4095 211.997 34.1906 210.054 34.1906C207.858 34.1906 206.028 33.4431 204.592 31.92C203.157 30.3968 202.453 28.4858 202.453 26.2151C202.453 23.9434 203.185 22.0605 204.621 20.5926C206.057 19.0976 207.887 18.3501 210.054 18.3501C211.969 18.3501 213.658 19.2059 214.954 20.7161V18.7369ZM127.013 14.943C127.013 13.6419 128.055 12.6724 129.405 12.6724C130.729 12.6724 131.743 13.6972 131.743 14.943C131.743 16.3004 130.729 17.2971 129.405 17.2971C128.055 17.2971 127.013 16.3004 127.013 14.943ZM122.115 24.7472H129.913C129.547 22.7799 128.111 21.5904 126.084 21.5904C124.084 21.5904 122.593 22.7809 122.115 24.7472ZM123.269 12.6724C124.592 12.6724 125.634 13.6972 125.634 14.943C125.634 16.3004 124.62 17.2971 123.269 17.2971C121.917 17.2971 120.904 16.3004 120.904 14.943C120.904 13.6972 121.945 12.6724 123.269 12.6724ZM133.629 27.6549H122.115C122.677 29.7869 124.17 30.867 126.591 30.867C128.252 30.867 130.101 30.2549 131.503 29.1607L133.101 31.634C131.164 33.4182 128.956 34.1625 126.422 34.1625C123.718 34.1625 121.663 33.3879 120.228 31.8647C118.792 30.3415 118.088 28.4576 118.088 26.2704C118.088 23.9715 118.82 22.0887 120.312 20.5937C121.805 19.0976 123.719 18.349 126.084 18.349C128.309 18.349 130.166 19.0413 131.601 20.3987C133.038 21.7561 133.77 23.5837 133.77 25.9367C133.77 26.4632 133.715 27.046 133.629 27.6549Z" fill="white"/>
<path fill-rule="evenodd" clip-rule="evenodd" d="M35.9397 4.2124C33.9648 9.20549 29.4687 10.2444 22.956 10.2444C22.257 10.2444 21.5646 10.2336 20.8964 10.2238C20.2502 10.2152 19.6392 10.2054 19.0402 10.2054C18.5083 10.2054 17.972 10.2119 17.4434 10.2347C18.3555 8.02682 19.8117 6.5264 21.8845 5.6164C24.7738 4.3489 28.5302 4.3359 31.8448 4.32615C33.2889 4.32074 34.6714 4.31532 35.9397 4.2124Z" fill="white"/>
<path fill-rule="evenodd" clip-rule="evenodd" d="M37.968 5.81438C35.0469 12.0869 28.5363 12.7152 22.9556 12.7152C21.7302 12.7152 20.5564 12.686 19.4695 12.6795L18.0639 18.0983C25.2624 12.3133 34.782 18.0485 33.7643 26.778C33.0786 32.6572 28.8265 36.502 24.3282 37.607C19.4277 38.8116 13.9986 37.009 11.5643 32.0863C11.3061 31.5663 10.8566 30.5241 10.6851 29.9673L15.8527 28.6586C15.9439 28.9522 16.0988 29.236 16.2615 29.495C19.7212 34.995 26.7318 32.2445 27.5231 26.5385C28.3286 20.734 20.0663 17.6422 16.3011 24.426L11.7182 22.501L11.6391 22.4663L13.8492 13.7205C13.9854 13.0987 14.4448 11.3621 14.524 11.0772C17.022 2.02271 25.103 1.87971 31.585 1.85588C28.9045 0.756294 25.9658 0.147461 22.8808 0.147461C10.3521 0.147461 0.197266 10.1575 0.197266 22.5075C0.197266 34.8575 10.3521 44.8675 22.8808 44.8675C35.4095 44.8675 45.5644 34.8575 45.5644 22.5075C45.5644 15.8688 42.6278 9.90938 37.968 5.81438Z" fill="white"/>
</svg>
