<svg width="1440" height="257" viewBox="0 0 1440 257" fill="none" xmlns="http://www.w3.org/2000/svg">
<path d="M1123.93 81.8281C1132.66 85.6538 1141.44 89.2946 1149.94 93.6675C1166.06 101.97 1180.38 112.786 1194.18 124.312C1217.16 143.499 1238.16 164.783 1259.73 185.465C1281.8 206.612 1304.29 227.327 1329.08 245.399C1337.3 251.386 1345.73 257.065 1354.36 262.474C1356.6 263.885 1358.52 264.057 1361.08 263.171C1370.33 260.005 1379.67 257.138 1388.98 254.208C1390.29 253.801 1391.9 253.611 1391.91 251.992C1391.92 250.699 1390.25 250.653 1389.34 250.129C1370.18 239.276 1351.51 227.771 1333.85 214.557C1319.52 203.832 1305.51 192.806 1291.91 181.187C1281.02 171.87 1270.24 162.393 1259.22 153.231C1238.39 135.925 1217.63 118.449 1193.92 104.955C1188.22 101.708 1182.19 99.0236 1175.9 95.8805C1181.11 94.8691 1185.51 97.7332 1191.63 97.2129C1179.35 89.3918 1167.59 83.4841 1154.24 81.0548C1154 80.8265 1153.92 80.553 1154.01 80.2328C1175.83 78.3898 1193.7 88.2485 1211.24 99.4779C1206.22 99.5482 1201.32 97.3698 1195.16 98.6666C1206.22 102.085 1216.17 105.537 1225.59 110.323C1246.13 120.774 1264.9 133.97 1283.31 147.663C1315.4 171.53 1347.34 195.634 1382.17 215.568C1397.07 224.099 1412.44 231.841 1427.55 240.017C1429.13 240.877 1430.54 240.94 1432.13 240.425C1442.94 236.915 1453.73 233.379 1464.57 229.951C1465.78 229.571 1467.31 229.182 1467.46 228.169C1467.62 227.02 1465.94 226.676 1464.94 226.152C1446.94 216.488 1428.41 207.865 1410.27 198.512C1390.92 188.548 1371.89 178.044 1353.19 166.861C1323.91 149.348 1295.87 129.745 1265.01 114.892C1257.15 111.102 1249.03 107.74 1240.53 105.548C1239.3 105.23 1238.67 104.391 1237.68 103.967C1241.39 103.967 1245.08 103.967 1248.77 103.967C1229.1 97.6261 1211.99 85.9155 1192.36 80.209C1192.27 79.7439 1192.19 79.2788 1192.09 78.8137C1194.6 78.9586 1197.1 79.1024 1199.62 79.2485C1200.45 79.8131 1201.36 80.0164 1202.34 79.7535C1219.62 83.8356 1236.02 90.6843 1253.15 95.3223C1269.67 99.8055 1286.41 101.97 1303.53 101.062C1305.62 101.76 1307.76 101.994 1309.93 101.563C1342.51 100.513 1373.1 109.739 1403.56 119.564C1428.02 127.456 1452.64 134.86 1476.84 143.534C1499.04 151.489 1520.19 161.502 1540.4 173.602C1551.68 180.354 1563.37 186.405 1575.66 193.196C1567.64 195.727 1559.68 196.95 1553.08 200.601C1541.68 206.914 1533.71 201.297 1525.03 195.411C1508.11 183.909 1489.77 174.907 1470.89 167.028C1456.95 161.213 1443.11 155.101 1428.92 149.955C1408.61 142.585 1388.64 134.319 1368.66 126.137C1354.06 120.154 1339.3 114.628 1324.26 109.94C1315.25 107.131 1305.75 105.887 1296.37 104.315C1282.58 102 1268.95 103.482 1255.24 103.49C1253.84 103.005 1252.48 102.915 1250.92 103.639C1252.33 104.749 1253.79 104.557 1255.22 104.489C1284.21 108.362 1310.32 120.159 1335.81 133.54C1377.38 155.371 1420.24 174.515 1462.83 194.259C1476.51 200.607 1489.8 207.721 1503.17 216.192C1501.51 216.674 1500.34 217.042 1499.59 217.988C1496.95 218.761 1498.64 220.471 1499.03 221.525C1501.2 227.327 1502.11 233.369 1503.06 239.438C1503.58 242.748 1503.12 246.295 1505.07 249.333C1504.38 250.925 1504.89 252.354 1505.65 253.755C1505.03 254.515 1504.97 255.184 1506 255.655C1505.28 257.247 1505.82 258.684 1506.6 260.086C1505.85 261.218 1506.1 262.149 1507.18 262.908C1506.67 264.138 1506.6 265.323 1507.51 266.418C1506.79 267.557 1506.98 268.498 1508.12 269.24C1508.17 278.627 1509.2 287.925 1511.05 297.123C1510.21 298.29 1510.43 299.248 1511.61 300.035C1511.03 301.817 1510.92 303.581 1511.96 305.263C1511.06 306.439 1511.36 307.388 1512.51 308.176C1511.96 309.957 1511.82 311.711 1512.85 313.393C1511.97 314.579 1512.24 315.537 1513.44 316.315C1512.83 318.097 1512.73 319.852 1513.75 321.534C1512.82 322.999 1512.99 324.274 1514.4 325.351C1513.82 326.825 1513.67 328.281 1514.66 329.674C1513.77 331.138 1513.91 332.432 1515.34 333.49C1514.74 334.964 1514.54 336.421 1515.59 337.813C1514.56 339.017 1514.92 339.957 1516.13 340.734C1515.6 342.517 1515.38 344.28 1516.5 345.953C1515.51 347.427 1515.71 348.702 1517.14 349.77C1516.56 351.244 1516.35 352.7 1517.4 354.083C1516.43 355.829 1516.48 357.431 1518.08 358.806C1517.5 360.28 1517.21 361.736 1518.3 363.128C1517.32 364.874 1517.31 366.493 1518.98 367.867C1518.28 369.64 1518.16 371.386 1519.23 373.077C1518.22 374.832 1518.26 376.433 1519.92 377.798C1519.29 379.273 1519.07 380.729 1520.12 382.121C1519.07 383.876 1519.12 385.477 1520.8 386.852C1520.07 388.633 1520.01 390.379 1521.05 392.07C1520 393.825 1520.09 395.417 1521.72 396.801C1521.14 398.275 1520.85 399.731 1521.94 401.124C1520.81 407.49 1522.78 413.695 1523.04 419.99C1523.1 421.645 1522.52 423.644 1524.45 424.837C1524.04 425.968 1523.58 427.107 1524.54 428.202C1523.44 430.572 1523.57 432.788 1525.4 434.777C1524.92 435.917 1524.52 437.066 1525.51 438.16C1524.49 440.512 1524.41 442.737 1526.35 444.717C1526.32 445.233 1526.31 445.758 1526.27 446.282C1525.33 449.221 1525.26 452.061 1527.3 454.639C1527.18 455.172 1526.72 455.698 1527.27 456.239C1526.25 458.881 1526.11 461.421 1528.18 463.692C1527.87 464.525 1527.42 465.356 1528.18 466.188C1527.06 468.567 1527.11 470.791 1529.09 472.755C1528.78 473.578 1528.32 474.401 1529.09 475.224C1528 477.602 1527.92 479.836 1529.95 481.808C1529.7 482.631 1529.21 483.454 1529.93 484.286C1528.61 485.399 1529.33 486.836 1529.44 488.084C1532.23 519.288 1535.11 550.481 1537.89 581.683C1542.05 628.633 1546.16 675.591 1550.28 722.541C1552.82 751.645 1555.3 780.75 1557.84 809.845C1561.06 846.89 1564.33 883.936 1567.52 920.981C1569.49 943.927 1571.31 966.89 1573.23 989.844C1576.18 1024.95 1579.12 1060.04 1582.11 1095.13C1583.09 1106.52 1584.22 1117.88 1585.28 1129.25C1415.7 1129.25 1246.1 1129.25 1076.52 1129.25C1076.85 1127.94 1077.22 1126.64 1077.53 1125.32C1088.66 1077.61 1099.23 1029.76 1111.06 982.22C1131.47 900.297 1152.65 818.564 1173.54 736.757C1184.13 695.272 1194.03 653.586 1205.6 612.362C1220.66 558.648 1237.06 505.305 1252.86 451.79C1255.15 444.012 1257.3 436.197 1259.51 428.401C1260.33 427.967 1260.52 427.316 1260.17 426.493C1261.69 425.037 1262.28 423.219 1262.21 421.166C1263.01 420.714 1263.21 420.063 1262.86 419.23C1264.36 417.774 1264.96 415.974 1264.89 413.93C1266.14 412.636 1266.77 411.118 1266.55 409.308C1268.05 407.844 1268.66 406.044 1268.58 403.981C1269.38 403.538 1269.6 402.897 1269.25 402.055C1270.74 400.581 1271.31 398.781 1271.26 396.747C1272.5 395.453 1273.13 393.933 1272.94 392.125C1274.39 390.641 1275.01 388.841 1274.98 386.798C1275.75 386.336 1275.96 385.694 1275.63 384.862C1277.08 383.388 1277.7 381.596 1277.65 379.562C1278.88 378.26 1279.47 376.731 1279.32 374.932C1280.27 374.299 1280.66 373.457 1280.32 372.327C1281.89 370.129 1282.87 367.723 1283.01 365.01C1283.98 364.376 1284.34 363.509 1284.03 362.377C1285.24 361.066 1285.82 359.528 1285.71 357.747C1286.63 357.114 1287.04 356.264 1286.73 355.142C1288.26 352.935 1289.22 350.521 1289.39 347.825C1290.35 347.193 1290.7 346.315 1290.43 345.202C1291.62 343.882 1292.21 342.353 1292.1 340.572C1293.05 339.938 1293.4 339.071 1293.12 337.967C1301.62 321.741 1309.73 305.29 1318.8 289.39C1322.82 282.372 1330.31 278.021 1336.29 272.531C1336.94 271.925 1337.63 271.438 1338.1 270.298C1333.7 269.511 1330.26 272.387 1326.32 272.911C1324.79 273.12 1323.94 273.111 1322.46 272.106C1312.62 265.441 1303.53 257.834 1294.46 250.255C1288.28 245.091 1282.59 239.258 1276.58 233.885C1268.8 226.93 1261.42 219.626 1254.14 212.23C1243.39 201.323 1232.72 190.327 1222.43 178.987C1205.73 160.569 1188.16 143.013 1170.3 125.736C1150.55 106.636 1128.73 90.269 1104.25 77.5396C1102.96 76.8755 1102.01 76.2632 1101.18 74.6841C1106.33 76.0437 1111.17 77.3221 1116.02 78.6006C1118.38 80.3506 1121.18 81.0127 1123.93 81.8281Z" fill="#60269E"/>
<path d="M1023.67 496.613C1023.3 496.938 1022.94 497.255 1022.58 497.581C1021.61 498.467 1020.6 499.317 1020.48 500.755C1020.3 501.017 1020.13 501.271 1019.94 501.533C1018.18 502.428 1017.65 504.264 1016.74 505.784C995.698 541.572 974.661 577.37 953.652 613.176C937.53 640.644 920.46 667.623 905.541 695.733C871.793 759.314 839.102 823.456 806.01 887.391C776.192 945.021 746.228 1002.58 716.709 1060.36C705.116 1083.06 694.564 1106.28 683.539 1129.25C583.851 1129.25 484.162 1129.25 384.475 1129.25C390.158 1119.62 397.103 1110.83 403.587 1101.74C433.409 1059.92 463.331 1018.17 493.267 976.432C543.906 905.823 594.111 834.907 645.464 764.822C667.238 735.102 691.446 707.137 714.562 678.395C743.173 642.805 771.496 606.99 800.539 571.762C815.439 553.691 832.646 537.602 848.786 520.598C867.845 500.511 887.048 480.568 906.161 460.544C912.991 453.399 921.153 447.81 928.785 441.614C946.904 426.926 965.169 412.428 983.351 397.822C985.494 396.103 987.756 394.647 990.209 393.408C1007.24 384.798 1024.27 376.16 1041.26 367.469C1046.43 364.837 1052.03 363.462 1057.48 361.671C1060.06 360.821 1061.36 360.242 1058.88 357.602C1012.29 308.039 972.163 253.239 929.268 200.674C908.523 175.232 887.067 150.387 861.115 129.856C846.707 118.461 831.297 108.629 814.263 101.439C808.892 99.1781 803.275 98.0747 797.548 97.333C797.576 97.0707 797.621 96.8265 797.694 96.5734C806.302 94.9816 815.001 94.3032 823.728 93.9053C840.853 93.1274 855.762 99.3951 869.832 108.231C892.456 122.431 910.566 141.487 928.046 161.276C943.457 178.723 957.855 196.974 972.163 215.289C989.862 237.945 1007.05 260.981 1024.89 283.51C1038.96 301.282 1053.33 318.847 1068.74 335.515C1073.34 340.49 1077.85 345.545 1082.32 350.637C1083.79 352.32 1084.95 352.618 1087.3 351.723C1093.6 349.299 1100.09 347.363 1106.59 345.509C1109.53 344.677 1109.47 343.945 1107.51 341.901C1096.01 329.835 1084.97 317.354 1074.48 304.439C1059.82 286.387 1045.37 268.171 1031.63 249.395C1020.37 234.002 1008.43 219.106 996.765 204.011C986.516 190.743 976.631 177.167 965.843 164.342C957.436 154.357 948.737 144.572 940.074 134.786C932.478 126.203 924.216 118.397 915.645 110.936C904.447 101.186 892.155 92.7928 878.231 87.2667C872.322 84.9242 866.003 83.2692 859.41 84.1646C859.236 83.7485 859.063 83.3325 858.89 82.9164C864.306 81.0261 869.677 79.0364 875.212 77.4265C885.608 74.3876 895.739 74.9031 905.569 78.973C919.183 84.6167 930.709 93.4983 941.542 103.266C964.12 123.634 983.123 147.158 1001.8 170.936C1031.84 209.202 1060.03 248.871 1090.39 286.902C1103.13 302.847 1116.22 318.494 1130.32 333.299C1132.83 335.94 1135.13 336.646 1138.67 335.307C1145.04 332.911 1151.61 331.056 1158.08 328.922C1159.9 328.325 1161.89 327.8 1159.18 325.521C1140.73 309.983 1126.63 290.61 1111.72 272.006C1083.57 236.86 1057.5 200.122 1029.78 164.641C1010.51 139.977 990.865 115.612 967.676 94.3484C957.947 85.4216 947.542 77.3904 935.779 71.204C928.648 67.4597 921.034 65.3342 912.444 65.2257C935.797 54.9966 955.941 60.8392 974.807 74.9574C995.744 90.6222 1013.22 109.66 1030.06 129.431C1053.91 157.442 1075.61 187.107 1098.08 216.175C1113.11 235.612 1127.98 255.165 1143.36 274.33C1152.58 285.826 1162.61 296.688 1172.31 307.804C1175.38 311.331 1179.19 314.044 1182.98 316.766C1184.47 317.843 1186.07 318.702 1183.12 320.42C1172.42 326.67 1161.93 333.272 1151.25 339.558C1148.47 341.186 1146.02 343.076 1143.81 345.346C1133.54 355.946 1123.4 366.682 1112.94 377.101C1097.13 392.838 1083.65 410.303 1071.39 428.871C1061.49 443.866 1050.48 458.147 1040.04 472.799C1034.51 480.577 1029.11 488.455 1023.65 496.287L1023.47 496.504L1023.67 496.613Z" fill="#60269E"/>
<path d="M-156.196 749.275C-165.784 752.73 -175.371 756.185 -184.959 759.64C-187.229 760.454 -189.499 761.277 -191.77 762.1C-191.77 737.382 -191.77 712.664 -191.77 687.945C-189.925 688.316 -188.64 687.023 -187.202 686.327C28.9107 581.91 246.12 479.79 465.219 381.668C564.714 337.107 664.449 293.088 765.843 252.886C802.072 238.524 838.419 224.442 875.988 213.788C884.733 211.31 893.533 208.922 902.733 208.515C906.809 208.334 909.773 209.519 912.536 212.82C920.022 221.765 926.643 231.234 932.178 241.029C881.168 256.676 832.975 279.043 784.464 300.496C648.036 360.83 513.13 424.412 378.306 488.165C226.469 559.95 75.1755 632.856 -75.8306 706.351C-102.681 719.42 -129.499 732.552 -156.325 745.675C-157.537 746.263 -158.676 747.005 -159.848 747.683C-161.014 747.747 -161.806 748.316 -162.33 749.474C-160.223 748.913 -158.173 750.822 -156.196 749.275Z" fill="#60269E"/>
<path d="M-191.77 536.922C-185.627 535.683 -180.42 532.237 -174.862 529.686C-148.901 517.775 -123.068 505.583 -97.1665 493.545C-75.5752 483.506 -54.0104 473.404 -32.3297 463.554C0.256989 448.749 32.799 433.853 65.5398 419.382C81.7838 412.201 97.9441 404.82 114.201 397.666C139.878 386.352 165.536 375.001 191.233 363.741C211.305 354.941 231.389 346.159 251.534 337.531C271.425 329.002 291.389 320.645 311.34 312.261C329.338 304.7 347.316 297.084 365.386 289.704C386.823 280.94 408.303 272.276 429.849 263.783C457.745 252.794 485.674 241.878 513.68 231.169C564.684 211.67 616.149 193.455 668.338 177.302C697.859 168.167 727.645 159.936 758.019 154.085C773.43 151.118 788.986 148.812 804.798 149.056C809.522 149.119 814.099 149.861 818.668 150.901C819.525 151.1 820.565 152.665 821.157 150.856C821.686 149.273 819.753 149.472 819.096 149.174C813.853 146.786 808.583 144.371 803.12 142.544C800.248 141.586 798.169 140.003 796.099 138.022C780.442 123.008 762.807 111.35 741.925 104.323C727.791 99.5656 713.712 94.5641 699.596 89.6983C694.392 87.9166 688.888 86.9849 683.52 85.6644C683.455 85.1761 683.392 84.6967 683.327 84.2173C685.536 84.3621 687.746 84.4977 689.955 84.6425C692.984 85.2303 696.013 85.8182 699.041 86.4061C710.393 88.5134 721.335 92.1674 732.423 95.2424C744.715 98.6702 757.317 100.515 769.819 102.849C780.296 104.811 790.227 108.167 798.926 114.371C824.23 132.451 848.386 151.887 869.751 174.543C870.253 175.077 870.727 175.628 871.274 176.252C839.55 174.263 810.188 184.139 780.761 192.948C718.077 211.715 657.143 235.357 596.436 259.542C473.155 308.643 351.621 361.788 230.511 415.9C90.008 478.667 -49.575 543.398 -188.436 609.656C-189.524 610.181 -190.657 610.606 -191.77 611.076C-191.77 586.358 -191.77 561.64 -191.77 536.922Z" fill="#60269E"/>
<path d="M-191.77 388.606C-187.614 387.882 -184.042 385.657 -180.329 383.93C-146.521 368.265 -112.576 352.908 -78.3993 338.048C-53.9274 327.403 -29.678 316.26 -5.19421 305.651C15.757 296.562 36.8705 287.852 57.9657 279.097C85.9173 267.502 113.817 255.772 141.929 244.566C171.678 232.709 201.58 221.222 231.54 209.899C282.149 190.77 333.167 172.781 384.734 156.329C426.581 142.98 468.752 130.788 511.514 120.668C537.61 114.49 563.928 109.272 590.553 105.962C609.037 103.664 627.654 102.018 646.321 103.094C659.687 103.863 672.852 106.287 685.847 109.525C687.993 110.068 690.155 110.538 693.356 111.28C690.508 106.405 685.888 105.428 682.437 103.113C678.922 100.743 674.963 99.0064 671.111 97.1704C667.076 95.244 663.052 93.1819 658.813 91.8253C654.688 90.5139 650.297 90.0164 645.065 88.9763C659.373 85.657 672.073 88.4879 684.317 93.1909C704.494 100.942 723.742 110.61 741.779 122.549C742.153 122.802 742.581 122.974 743.037 123.209C740.493 125.515 738.377 123.625 736.234 123.535C724.134 123.01 712.024 123.3 699.997 124.611C690.233 125.678 680.514 127.252 670.833 128.934C654.674 131.747 638.607 135.021 622.73 139.163C610.304 142.401 597.825 145.449 585.433 148.805C575.078 151.617 564.793 154.701 554.514 157.776C539.31 162.335 523.968 166.504 509.005 171.741C494.734 176.733 480.35 181.427 466.059 186.338C450.532 191.675 435.06 197.21 419.554 202.609C409.596 206.073 399.714 209.989 389.803 213.616C374.124 219.359 358.481 225.211 342.919 231.234C331.08 235.811 319.309 240.65 307.456 245.163C292.093 251.005 276.908 257.291 261.541 263.125C250.084 267.475 238.929 272.603 227.581 277.234C214.687 282.507 201.67 287.481 188.816 292.844C177.126 297.719 165.623 303.028 153.965 307.975C142.102 313.004 130.088 317.689 118.251 322.781C98.7574 331.156 79.3646 339.766 59.9025 348.223C43.2727 355.449 26.5408 362.44 9.97388 369.803C-8.44867 377.988 -26.7071 386.534 -45.0923 394.801C-58.9883 401.051 -73.0202 407.002 -86.9016 413.279C-99.0222 418.768 -110.999 424.557 -123.074 430.146C-134.086 435.238 -145.241 440.032 -156.156 445.323C-166.829 450.487 -178.036 454.539 -188.331 460.508C-189.252 461.042 -190.613 460.825 -191.77 460.951C-191.77 436.839 -191.77 412.727 -191.77 388.606Z" fill="#60269E"/>
<path d="M451.953 69.8841C469.142 71.3764 486.177 74.0264 503.245 76.4413C516.882 78.3767 530.544 80.1494 544.194 81.9854C545.259 82.9532 544.419 83.3421 543.648 83.7491C535.488 82.7542 527.314 82.899 519.12 83.2788C505.89 83.8757 492.685 84.7168 479.552 86.4715C464.793 88.4431 450.007 90.1705 435.422 93.3089C426.325 95.2715 417.014 96.2845 407.95 98.3737C398.295 100.59 388.553 102.417 378.928 104.723C363.837 108.332 348.827 112.293 333.847 116.336C317.599 120.731 301.355 125.163 285.24 130.002C267.05 135.465 248.956 141.253 230.908 147.168C211.322 153.589 191.79 160.183 172.32 166.93C156.907 172.284 141.632 178.027 126.311 183.626C109.755 189.676 93.1448 195.6 76.7357 202.031C61.6251 207.955 46.4552 213.716 31.4229 219.848C15.4415 226.369 -0.733322 232.447 -16.6601 239.112C-33.6893 246.239 -50.9018 252.923 -67.7587 260.475C-84.5654 268 -101.701 274.81 -118.641 282.046C-133.131 288.241 -147.577 294.545 -161.989 300.912C-171.962 305.326 -181.845 309.929 -191.77 314.452C-191.77 290.936 -191.77 267.43 -191.77 243.915C-186.503 243.544 -182.098 240.686 -177.482 238.678C-150.289 226.857 -122.828 215.67 -95.3045 204.635C-50.5179 186.683 -5.37659 169.652 40.1897 153.734C84.389 138.295 128.908 123.843 173.987 111.117C217.177 98.9345 260.679 88.0542 304.927 80.249C326.903 76.369 348.925 73.0768 371.18 71.078C388.556 69.5224 405.923 68.4913 423.348 68.645C431.97 68.7264 440.586 69.4229 449.204 69.8389C450.114 70.2459 451.03 70.2278 451.953 69.8841Z" fill="#60269E"/>
<path d="M188.446 45.5902C190.278 45.6535 192.111 45.7078 193.944 45.7711C196.341 46.3318 198.759 46.6031 201.216 46.2323C204.542 46.8473 207.889 47.0011 211.259 46.7027C213.059 46.8926 214.858 47.0916 216.657 47.2815C226.27 48.0231 235.878 48.819 245.497 49.4793C259.641 50.4561 273.78 51.4328 287.871 53.0427C290.562 53.3502 293.321 53.088 296.049 53.097C297.131 53.9743 296.158 54.327 295.613 54.7973C282.024 54.2366 268.419 54.7612 254.921 55.9188C237.947 57.3659 220.994 59.1477 204.109 61.7524C187.318 64.3572 170.529 66.8986 153.856 70.1546C141.792 72.5151 129.714 74.8305 117.723 77.5167C107.489 79.8139 97.4388 82.9342 87.183 85.1139C71.694 88.397 56.597 93.0729 41.3596 97.2423C26.1414 101.412 11.0517 106.024 -4.04614 110.61C-19.2197 115.222 -34.261 120.242 -49.4483 124.818C-60.6725 128.192 -71.6724 132.316 -82.7252 136.241C-95.2945 140.7 -107.811 145.295 -120.348 149.844C-132.444 154.231 -144.592 158.49 -156.617 163.058C-168.399 167.535 -180.057 172.337 -191.77 176.995C-191.77 157.704 -191.77 138.412 -191.77 119.111C-170.964 112.518 -150.199 105.789 -129.343 99.3496C-94.5121 88.605 -59.3248 79.1085 -23.7845 70.9595C3.66008 64.6737 31.2533 59.0752 59.1338 54.9872C81.2449 51.7403 103.405 49.1356 125.723 47.4714C144.812 46.0424 163.888 46.1961 182.971 45.6716C184.795 45.6444 186.621 45.6173 188.446 45.5902Z" fill="#60269E"/>
<path d="M1355.56 92.0602C1355.1 91.998 1354.76 91.8881 1354.41 91.9281C1354.23 91.948 1354.1 92.2355 1353.94 92.4031C1354.3 92.5307 1354.66 92.7138 1355.01 92.7537C1355.14 92.7671 1355.29 92.4064 1355.56 92.0602ZM1631.79 85.6604C1598.24 85.6348 1565.25 81.4245 1532.44 74.431C1496.12 66.6862 1459.43 64.2282 1422.54 71.0996C1406.39 74.1092 1390.83 79.094 1375.62 85.1676C1369.35 87.6745 1362.73 89.0916 1356.57 92.1068C1364.02 91.4232 1371.46 90.5576 1378.95 90.0893C1404.48 88.4902 1429.48 92.4985 1454.47 97.0162C1490.73 103.571 1525.47 115.085 1559.97 127.698C1582.87 136.072 1606.23 143.171 1629.4 150.803C1630.13 151.038 1631.02 151.883 1631.79 150.771C1631.79 159.213 1631.79 167.653 1631.79 176.092C1629.23 175.233 1627.24 176.861 1625.09 177.644C1621.62 178.906 1618.42 178.762 1614.97 177.151C1587.56 164.321 1559.47 152.972 1532.21 139.83C1518.33 133.14 1503.96 127.596 1489.21 123.231C1466.85 116.618 1444.39 110.447 1421.62 105.313C1412.32 103.218 1403.01 101.073 1393.67 99.2778C1385.82 97.7675 1377.7 97.1705 1369.73 96.2261C1359 94.9566 1348.37 95.9153 1337.12 95.4226C1351.49 90.7873 1365.35 86.4205 1379.13 81.8362C1396.87 75.9358 1414.51 69.7279 1433.02 66.4464C1442.69 64.7319 1452.4 63.5012 1462.22 63.0052C1478.46 62.1851 1494.59 63.0651 1510.68 65.0038C1525.12 66.7461 1539.31 69.9688 1553.62 72.5433C1579.51 77.2009 1605.58 78.0965 1631.79 76.6161C1631.79 79.6312 1631.79 82.6452 1631.79 85.6604Z" fill="#60269E"/>
<path d="M-191.77 42.2457C-185.818 42.6979 -180.072 41.0699 -174.258 40.3464C-161.951 38.7998 -149.582 38.0672 -137.249 36.9095C-122.304 35.5077 -107.297 35.2724 -92.3036 34.8202C-91.419 34.7931 -90.5427 34.4766 -89.6619 34.2957C-88.4108 34.7388 -87.2044 34.6213 -86.0399 34.0062C-52.5459 34.2052 -19.0784 35.4081 14.391 36.5387C17.7157 36.6562 21.0449 36.6291 24.3714 36.6653C24.935 36.9276 25.0416 37.3165 24.6924 37.823C11.3836 37.6059 -1.82121 39.1977 -15.0716 40.0298C-25.1679 40.6629 -35.2176 41.5854 -45.2309 43.0234C-62.3385 45.4835 -79.4762 47.6089 -96.4927 50.8197C-108.906 53.1622 -121.385 55.3056 -133.803 57.6752C-144.572 59.7283 -155.198 62.523 -165.879 65.0283C-174.516 67.0451 -183.14 69.1344 -191.77 71.1875C-191.77 61.5463 -191.77 51.896 -191.77 42.2457Z" fill="#60269E"/>
<path d="M1631.79 121.829C1619.18 119.275 1606.6 116.583 1593.97 114.193C1566.97 109.086 1540.92 100.435 1514.41 93.5476C1481.85 85.0926 1448.71 80.4716 1414.95 81.0121C1405.87 81.1586 1396.9 82.4359 1389.11 83.0928C1398.9 79.666 1410.27 77.7994 1421.76 76.4289C1442.69 73.9331 1463.54 75.1162 1484.44 77.1015C1511.91 79.7105 1538.18 87.9191 1565.03 93.3557C1587.05 97.8146 1609.44 99.8531 1631.79 101.934C1631.79 108.564 1631.79 115.197 1631.79 121.829Z" fill="#60269E"/>
<path d="M1257.05 83.7042C1296.93 88.8778 1335.78 84.7129 1373.63 71.0633C1392.97 64.0864 1412.2 56.577 1432.54 52.8827C1454.32 48.9265 1476.2 47.7268 1498.41 50.1616C1519.88 52.5153 1540.39 58.5667 1561.2 63.5238C1583.16 68.7562 1605.45 69.2289 1627.85 68.4443C1629.17 68.3988 1630.48 67.8751 1631.79 67.5743C1631.79 68.4788 1631.79 69.3832 1631.79 70.2876C1614.96 70.2765 1598.11 70.8824 1581.34 70.0435C1569.59 69.4564 1557.89 67.2236 1546.4 64.5159C1537.32 62.3796 1528.17 60.7872 1518.98 59.2114C1499.12 55.8012 1479.24 54.2409 1459.14 55.7668C1447.34 56.6612 1435.77 58.8252 1424.27 61.4298C1401.11 66.6777 1378.76 74.5345 1356.22 81.8121C1333.62 89.1031 1310.36 92.5821 1286.45 91.0019C1276.02 90.3116 1265.8 88.4794 1255.53 86.7172C1249.08 85.6119 1242.82 83.8352 1236.37 82.8475C1236.19 82.6444 1236.11 82.4103 1236.11 82.144C1241.26 82.4281 1246.42 82.711 1251.55 82.9951C1253.29 83.9606 1255.16 83.8729 1257.05 83.7042Z" fill="#60269E"/>
<path d="M1368.32 64.0738C1378.3 60.7646 1387.88 56.51 1397.61 52.5749C1417.13 44.6703 1436.54 36.4405 1457.18 31.6021C1481.44 25.9092 1505.12 28.1364 1528.51 36.284C1544.42 41.8249 1559.61 49.1979 1575.67 54.326C1593.96 60.1532 1612.54 63.8065 1631.78 63.9541C1631.78 64.2559 1631.78 64.5577 1631.78 64.8585C1621.79 64.8485 1611.71 65.6064 1601.82 64.6265C1590.26 63.4813 1578.63 61.6647 1567.51 58.2267C1549.78 52.7513 1532.4 46.1329 1514.2 42.2511C1507.49 40.8184 1500.62 40.036 1493.75 39.3069C1484.67 38.3437 1475.61 37.2073 1466.47 37.6479C1448.9 38.4957 1432.14 43.1056 1415.62 48.8396C1394.92 56.0362 1374.69 64.5943 1353.54 70.5658C1344.09 73.2313 1334.55 75.3543 1324.9 77.161C1324.28 77.2786 1323.57 76.9834 1322.96 77.1953C1337.55 73.4245 1352.38 70.4127 1366.45 64.7464C1367.2 64.8529 1367.88 64.804 1368.32 64.0738Z" fill="#60269E"/>
<path d="M991.724 54.7162C1012.37 58.4968 1028.5 70.3448 1043.74 83.631C1068.6 105.31 1089.95 130.236 1110.95 155.515C1130.69 179.284 1149.65 203.667 1169.12 227.653C1184.08 246.085 1199.32 264.318 1215.66 281.611C1222.41 288.756 1229.33 295.539 1238.34 301.391C1229.89 304.095 1222.32 306.971 1214.51 308.853C1210.2 309.902 1207.38 305.76 1204.46 303.263C1191.07 291.813 1180.38 277.903 1169.11 264.49C1156.32 249.269 1144.03 233.658 1131.98 217.858C1121.36 203.93 1110.29 190.327 1099.42 176.588C1089.08 163.51 1078.85 150.342 1068.31 137.418C1062.51 130.3 1055.95 123.797 1050.14 116.688C1044.35 109.597 1037.86 103.103 1031.42 96.7271C1024.17 89.573 1016.73 82.4642 1008.52 76.1875C1000.2 69.8293 991.797 63.7606 982.24 59.4465C978.538 57.7823 974.553 56.7331 970.705 55.4127C970.751 54.9333 970.796 54.454 970.842 53.9747C976.587 53.9747 982.331 53.9747 988.085 53.9747C989.189 54.7615 990.447 54.7795 991.724 54.7162Z" fill="#60269E"/>
<path d="M1032.75 58.3982C1049.83 59.7458 1065.07 66.3844 1079.53 74.8951C1096.98 85.1875 1112.22 98.3379 1127.16 111.895C1152.71 135.067 1174.83 161.341 1197.51 187.117C1210.75 202.149 1223.93 217.235 1237.65 231.859C1250.78 245.86 1264.41 259.327 1278.69 272.161C1283.12 276.14 1287.84 279.803 1292.68 283.837C1284.47 286.514 1276.63 289.074 1268.78 291.624C1265.4 292.718 1263.21 290.394 1260.89 288.757C1256.12 285.393 1252.26 281.042 1248.22 276.873C1243.5 271.998 1238.26 267.602 1233.66 262.619C1222.46 250.472 1211.4 238.217 1200.75 225.582C1192.65 215.977 1184.61 206.3 1176.44 196.749C1166.94 185.634 1157.95 174.093 1148.59 162.86C1144.22 157.614 1139.48 152.676 1134.94 147.566C1127.91 139.661 1121.15 131.513 1113.84 123.87C1105.93 115.567 1097.66 107.563 1089.3 99.6946C1073.58 84.8981 1057.22 70.9246 1037.4 61.5637C1035.58 60.7045 1032.89 61.1025 1031.96 58.5701C1032.25 58.6062 1032.51 58.5519 1032.75 58.3982Z" fill="#60269E"/>
<path d="M622.574 94.9271C629.769 93.4348 636.556 94.7371 643.051 98.0383C635.998 98.5629 629.376 96.13 622.574 94.9271Z" fill="#60269E"/>
<path d="M1153.05 88.396C1146.83 86.7138 1140.6 85.0405 1133.97 83.2497C1140.92 83.4759 1147.07 85.2667 1153.05 88.396Z" fill="#60269E"/>
<path d="M739.317 91.0751C739.208 91.3554 739.153 91.6449 739.144 91.9434C735.305 90.9214 731.466 89.8994 727.627 88.8864C727.645 88.796 727.663 88.7145 727.691 88.6331C731.566 89.4471 735.442 90.2611 739.317 91.0751Z" fill="#60269E"/>
</svg>
