<svg width="358" height="40" viewBox="0 0 358 40" fill="none" xmlns="http://www.w3.org/2000/svg">
<path d="M54.3615 -0.471165C52.4009 0.0219283 50.441 0.47976 48.4851 1.07798C44.7737 2.21404 41.2281 3.8505 37.7301 5.62835C31.9081 8.58823 26.3156 11.9765 20.6573 15.2417C14.8684 18.5801 9.03074 21.8299 2.93987 24.5439C0.919978 25.4427 -1.11773 26.2807 -3.17379 27.0648C-3.70937 27.2693 -4.0923 27.2556 -4.52304 27.0341C-6.07957 26.2403 -7.67452 25.4989 -9.26072 24.7465C-9.48396 24.6417 -9.78178 24.5692 -9.66698 24.274C-9.57562 24.0379 -9.25025 24.0686 -9.03551 23.9945C-4.55248 22.4647 -0.117077 20.8046 4.24601 18.8091C7.78719 17.1894 11.2891 15.5076 14.7537 13.7079C17.53 12.2645 20.2947 10.7891 23.0851 9.37702C28.3564 6.70991 33.6274 4.01031 39.1791 2.10555C40.5147 1.64721 41.8729 1.29906 43.3126 0.873174C42.3815 0.56694 41.324 0.985873 40.1806 0.747717C43.1161 -0.390518 45.8124 -1.19217 48.5669 -1.32212C48.6297 -1.3581 48.6642 -1.40618 48.6705 -1.46661C44.591 -2.3138 40.4282 -0.935136 36.2317 0.701311C37.195 0.83164 38.2977 0.549209 39.3934 0.929969C37.0118 1.29405 34.8424 1.69049 32.6776 2.34233C27.9563 3.76628 23.3797 5.73255 18.8368 7.79756C10.9167 11.3971 3.00895 15.0432 -5.15542 17.8615C-8.64752 19.0678 -12.1732 20.1193 -15.6817 21.2558C-16.0491 21.3755 -16.3252 21.354 -16.5954 21.2228C-18.4281 20.3298 -20.2569 19.4323 -22.1019 18.5534C-22.3081 18.4557 -22.5747 18.3491 -22.531 18.1608C-22.4775 17.9478 -22.1284 17.9244 -21.899 17.852C-17.725 16.5119 -13.5252 15.3739 -9.34631 14.0939C-4.89173 12.7306 -0.459139 11.2613 3.9593 9.66066C10.8772 7.15368 17.7061 4.2366 24.7371 2.25176C26.5288 1.74499 28.3379 1.3222 30.1384 1.12175C30.3993 1.09265 30.5799 0.954189 30.8021 0.900138C30.0864 0.813279 29.3748 0.726931 28.6611 0.640327C32.9171 -0.0547383 37.0663 -1.78891 41.268 -2.36944C41.3184 -2.45218 41.3689 -2.53492 41.4214 -2.61742C40.9268 -2.64974 40.4322 -2.68228 39.9353 -2.71468C39.7345 -2.63115 39.5451 -2.61529 39.3746 -2.68621C35.7429 -2.34693 32.0817 -1.48252 28.4414 -1.03806C24.9281 -0.607738 21.5401 -0.605315 18.3004 -1.17184C17.8458 -1.0937 17.4163 -1.10117 17.0285 -1.23048C10.8138 -2.18529 4.24204 -1.21986 -2.3478 -0.142095C-7.64002 0.723597 -12.9286 1.49652 -18.2269 2.51111C-23.0879 3.44132 -27.8934 4.77133 -32.6686 6.50392C-35.3354 7.47057 -38.0294 8.29981 -40.8926 9.25005C-39.526 9.89949 -38.0776 10.309 -37.0676 11.1291C-35.3238 12.547 -33.379 11.7098 -31.278 10.84C-27.1797 9.1396 -22.9903 7.92783 -18.7748 6.93377C-15.6641 6.20016 -12.551 5.41 -9.44031 4.80434C-4.98574 3.93661 -0.533759 2.89724 3.91415 1.87372C7.16537 1.12494 10.4151 0.463387 13.6569 -0.0389451C15.5988 -0.34003 17.5224 -0.344284 19.4465 -0.411295C22.2769 -0.510117 24.8014 0.0793676 27.4471 0.401869C27.7516 0.346238 28.0213 0.361794 28.27 0.530241C27.9183 0.699603 27.65 0.63048 27.3792 0.584588C21.5014 0.611444 15.6092 2.15061 9.72245 3.99303C0.119973 6.99927 -9.53884 9.4851 -19.1864 12.0872C-22.2871 12.9239 -25.3653 13.9097 -28.5583 15.1409C-28.2731 15.2674 -28.0745 15.362 -27.9975 15.552C-27.5439 15.7548 -27.9938 16.027 -28.1457 16.2098C-28.9839 17.2169 -29.5951 18.2972 -30.2167 19.3814C-30.5569 19.9726 -30.7247 20.6299 -31.3211 21.1381C-31.3014 21.4447 -31.5035 21.6932 -31.7522 21.9308C-31.687 22.0838 -31.7228 22.2074 -31.9568 22.2689C-31.9328 22.576 -32.1399 22.8256 -32.3927 23.0628C-32.3292 23.2867 -32.4449 23.4506 -32.7082 23.5637C-32.6981 23.7999 -32.7711 24.0176 -33.0249 24.1959C-32.9682 24.4204 -33.0741 24.5874 -33.3467 24.6961C-34.0354 26.4062 -34.905 28.0773 -35.9274 29.7107C-35.8496 29.9432 -35.961 30.1128 -36.2453 30.2287C-36.2624 30.567 -36.3688 30.8912 -36.6903 31.1736C-36.6026 31.4089 -36.728 31.5751 -37.0081 31.6916C-37.0294 32.0294 -37.1309 32.3523 -37.4503 32.6349C-37.3654 32.8717 -37.4873 33.0401 -37.7751 33.1537C-37.786 33.493 -37.8938 33.8151 -38.2132 34.0978C-38.138 34.3869 -38.2638 34.6153 -38.6131 34.7786C-38.6081 35.0609 -38.6838 35.3299 -38.976 35.5606C-38.9092 35.8486 -39.03 36.0811 -39.3822 36.2405C-39.3729 36.5233 -39.4403 36.7935 -39.743 37.0228C-39.6321 37.2662 -39.7695 37.4292 -40.0593 37.5426C-40.0849 37.8801 -40.1702 38.2066 -40.5079 38.4854C-40.4229 38.7774 -40.5529 39.0053 -40.9058 39.1664C-40.9007 39.4487 -40.9659 39.719 -41.268 39.9467C-41.2067 40.2877 -41.333 40.5785 -41.7418 40.7915C-41.7346 41.0741 -41.785 41.3461 -42.0962 41.5744C-42.0328 41.9156 -42.1477 42.2111 -42.5691 42.4226C-42.5624 42.7622 -42.6654 43.0833 -42.9939 43.3664C-42.9249 43.7102 -43.049 44.0011 -43.4676 44.2111C-43.4542 44.4946 -43.5152 44.7654 -43.8199 44.9944C-43.7426 45.3392 -43.8687 45.6298 -44.2923 45.8411C-44.2799 46.1829 -44.3955 46.5025 -44.7176 46.7864C-44.6424 47.131 -44.7742 47.4192 -45.1879 47.6334C-45.1828 47.9157 -45.2332 48.1877 -45.5444 48.4162C-45.7854 49.6034 -46.6148 50.6884 -47.118 51.8302C-47.2502 52.1304 -47.283 52.5083 -47.7418 52.6806C-47.7436 52.8966 -47.7374 53.115 -48.0018 53.292C-47.9604 53.7499 -48.1458 54.1508 -48.6432 54.4706C-48.6329 54.6896 -48.638 54.9085 -48.9086 55.0848C-48.8806 55.5375 -49.0266 55.9449 -49.5444 56.2605C-49.5754 56.3553 -49.6112 56.4512 -49.6428 56.5476C-49.6719 57.1056 -49.8645 57.625 -50.4444 58.0471C-50.4598 58.1471 -50.4093 58.2537 -50.5537 58.3397C-50.5488 58.845 -50.705 59.3115 -51.269 59.6769C-51.2681 59.8362 -51.2419 59.9983 -51.4494 60.132C-51.4044 60.592 -51.5756 60.9963 -52.0985 61.308C-52.099 61.4652 -52.0701 61.626 -52.2769 61.7581C-52.2382 62.2173 -52.3848 62.6263 -52.9189 62.9383C-52.9299 63.0942 -52.8947 63.2558 -53.0937 63.3905C-52.9194 63.6244 -53.1622 63.8696 -53.2734 64.0946C-56.0667 69.7179 -58.8762 75.3374 -61.6673 80.9608C-65.8635 89.4227 -70.0498 97.8874 -74.2354 106.351C-76.8286 111.597 -79.4114 116.845 -82.004 122.09C-85.3015 128.768 -88.6095 135.446 -91.9007 142.125C-93.9395 146.262 -95.9501 150.406 -97.979 154.545C-101.083 160.876 -104.187 167.204 -107.299 173.532C-108.311 175.585 -109.352 177.631 -110.377 179.679C-77.6385 183.652 -44.8975 187.625 -12.1587 191.598C-12.1292 191.351 -12.1067 191.105 -12.0703 190.857C-10.7729 181.898 -9.3556 172.926 -8.20536 163.982C-6.22554 148.569 -4.41104 133.172 -2.53228 117.768C-1.57929 109.957 -0.479123 102.125 0.265489 94.3383C1.23882 84.1928 1.92647 74.0834 2.74227 63.9568C2.8621 62.4852 3.01195 61.0101 3.14785 59.5369C3.02128 59.4387 3.03254 59.3156 3.15938 59.1737C2.96982 58.8726 2.98749 58.5273 3.15054 58.1548C3.02742 58.0535 3.03657 57.9302 3.16411 57.7865C2.98087 57.4861 2.99512 57.1439 3.15544 56.7728C3.0068 56.5076 2.99651 56.2161 3.16935 55.8913C2.98463 55.5891 2.99677 55.2467 3.16264 54.8727C3.03889 54.7729 3.04312 54.6509 3.17128 54.5056C2.99148 54.2021 3.00992 53.8605 3.16743 53.4908C3.0209 53.2259 3.0086 52.934 3.17715 52.6089C3.00436 52.3044 3.01439 51.9617 3.16832 51.5899C3.05221 51.4876 3.05863 51.3656 3.18188 51.2217C3.00839 50.9189 3.01779 50.5778 3.17531 50.2082C3.0315 49.9419 3.02824 49.6494 3.18774 49.3249C3.0503 49.1873 3.0353 49.0247 3.18223 48.8265C3.03786 48.3891 3.02225 47.9273 3.19086 47.4295C3.04929 47.2912 3.04249 47.1246 3.18528 46.9257C3.04631 46.6584 3.04584 46.3644 3.19559 46.0422C3.06236 45.9052 3.0459 45.7407 3.18588 45.5434C3.05064 45.1052 3.03979 44.6425 3.20084 44.147C3.06129 44.0092 3.05729 43.8411 3.19033 43.6446C3.05627 43.376 3.05301 43.0836 3.20277 42.7613C3.0654 42.6236 3.0607 42.4572 3.19304 42.2625C2.72535 39.1052 2.3476 35.9159 1.74474 32.8047C1.47708 31.4311 0.34507 30.4625 -0.41195 29.3215C-0.494506 29.1958 -0.591887 29.0908 -0.600051 28.8719C0.305179 28.8315 0.76266 29.4366 1.48483 29.6242C1.76449 29.6981 1.92931 29.7164 2.28822 29.568C4.66868 28.5833 6.97405 27.4095 9.27107 26.2401C10.8379 25.4434 12.3583 24.5133 13.9064 23.6746C15.9099 22.5888 17.8629 21.4301 19.8035 20.2524C22.6673 18.5158 25.5207 16.7608 28.3274 14.9347C32.8811 11.968 37.5411 9.17879 42.2377 6.44751C47.4303 3.42798 52.8254 0.955288 58.4713 -0.791923C58.7677 -0.882847 58.9951 -0.972236 59.2692 -1.24073C58.1773 -1.11344 57.1502 -0.993778 56.121 -0.874388C55.5398 -0.610506 54.9509 -0.555466 54.3615 -0.471165Z" fill="#3B7F6E"/>
<path d="M58.1768 83.6896C58.2316 83.7591 58.285 83.8268 58.3397 83.8963C58.4831 84.085 58.6386 84.2682 58.5655 84.5342C58.586 84.5871 58.6053 84.6382 58.6258 84.6911C58.936 84.9033 58.9242 85.2535 59.0109 85.556C61.008 92.6748 63.0026 99.795 64.9907 106.916C66.517 112.379 68.2766 117.779 69.5051 123.326C72.285 135.872 74.8036 148.492 77.4209 161.085C79.7779 172.436 82.1706 183.777 84.454 195.148C85.3501 199.615 85.9917 204.148 86.7497 208.649C107.776 211.403 128.803 214.157 149.829 216.911C149.288 214.995 148.423 213.197 147.675 211.357C144.239 202.894 140.776 194.442 137.31 185.99C131.447 171.693 125.696 157.352 119.647 143.131C117.082 137.101 113.884 131.324 110.97 125.435C107.364 118.143 103.834 110.819 100.111 103.581C98.2018 99.8688 95.6703 96.4544 93.4261 92.9025C90.777 88.7067 88.0872 84.5333 85.4222 80.3475C84.4691 78.8536 83.1291 77.6072 81.942 76.2646C79.1225 73.081 76.2594 69.9281 73.4209 66.7576C73.0861 66.3845 72.7085 66.0561 72.2757 65.762C69.2704 63.7186 66.2688 61.6704 63.2768 59.6132C62.3677 58.9898 61.2787 58.5838 60.2526 58.1063C59.7663 57.8797 59.5308 57.7379 60.2342 57.324C73.4424 49.5577 85.6462 40.6565 98.2804 32.2397C104.392 28.1655 110.613 24.22 117.488 21.1868C121.304 19.5032 125.225 18.1331 129.309 17.2903C130.596 17.0257 131.856 16.9793 133.114 17.0021C133.127 16.9534 133.134 16.9076 133.136 16.8593C131.429 16.3307 129.64 15.9664 127.826 15.6526C124.267 15.0374 120.695 15.7704 117.124 16.9958C111.384 18.9645 106.264 21.9451 101.226 25.0769C96.7855 27.838 92.5031 30.7741 88.2357 33.7243C82.9566 37.3738 77.7593 41.1068 72.4599 44.7293C68.2796 47.587 64.0499 50.3983 59.6621 53.0173C58.3513 53.7987 57.0562 54.5978 55.7663 55.4045C55.34 55.6709 55.0753 55.6934 54.6421 55.4652C53.4785 54.8483 52.2411 54.3154 50.9963 53.7971C50.4338 53.564 50.4953 53.4317 51.0483 53.1124C54.2969 51.2263 57.4777 49.2515 60.5708 47.182C64.8953 44.2895 69.1867 41.3615 73.3664 38.3115C76.7901 35.8105 80.3261 33.4196 83.8161 30.9845C86.8833 28.844 89.8945 26.6373 93.0449 24.5927C95.4995 23.0011 98.0021 21.4539 100.497 19.9056C102.685 18.5477 104.96 17.3502 107.277 16.224C110.304 14.7524 113.47 13.5589 116.784 12.9342C118.19 12.6696 119.636 12.5418 120.965 12.8875C121.03 12.8163 121.095 12.7451 121.16 12.6739C120.146 12.179 119.149 11.6671 118.092 11.2201C116.106 10.3778 113.934 10.1921 111.583 10.6639C108.327 11.3187 105.29 12.6226 102.338 14.1076C96.1861 17.2043 90.5727 20.9763 85.0112 24.8037C76.0627 30.9636 67.4109 37.4309 58.4131 43.5392C54.6382 46.0999 50.8086 48.5962 46.8249 50.9112C46.1139 51.3241 45.581 51.3895 44.9261 51.0472C43.7471 50.4336 42.4869 49.9132 41.267 49.3445C40.925 49.1853 40.5415 49.0345 41.2682 48.6931C46.2194 46.3644 50.5148 43.2151 54.9289 40.2287C63.2663 34.5867 71.27 28.5959 79.538 22.8807C85.2869 18.908 91.0923 14.9999 97.4343 11.7566C100.096 10.3948 102.838 9.21517 105.741 8.41013C107.501 7.92318 109.252 7.7453 111.071 7.9628C106.843 5.44908 102.196 5.95983 97.2533 8.01747C91.7684 10.3005 86.7823 13.2951 81.8828 16.4415C74.9401 20.899 68.3383 25.7182 61.6158 30.4073C57.1199 33.5424 52.6486 36.7033 48.0982 39.7793C45.3693 41.6244 42.5125 43.3315 39.7076 45.0938C38.8187 45.6533 37.8296 46.0436 36.8457 46.4363C36.4568 46.5916 36.0616 46.7044 36.5656 47.0997C38.3971 48.5371 40.1585 50.0328 41.9838 51.4763C42.4574 51.8502 42.8458 52.2633 43.1563 52.7389C44.6007 54.9591 46.0069 57.2003 47.502 59.3925C49.7614 62.7037 51.4144 66.2665 52.7324 69.9968C53.7979 73.0096 55.1449 75.9223 56.3474 78.8872C56.9842 80.4609 57.5853 82.049 58.2029 83.6306L58.2246 83.675L58.1768 83.6896Z" fill="#3B7F6E"/>
<path d="M299.708 169.896C301.574 170.835 303.44 171.774 305.306 172.713C305.749 172.934 306.19 173.158 306.632 173.381C308.394 168.649 310.157 163.917 311.919 159.186C311.486 159.203 311.295 158.918 311.028 158.744C270.853 132.496 230.273 106.657 188.991 81.5282C170.245 70.1163 151.407 58.8014 131.932 48.169C124.973 44.3704 117.968 40.622 110.45 37.4945C108.699 36.7668 106.931 36.0549 104.932 35.7105C104.047 35.5578 103.31 35.6988 102.465 36.2507C100.178 37.7461 98.0441 39.3671 96.1261 41.0818C106.25 45.5544 115.275 51.2317 124.434 56.7434C150.194 72.2444 175.387 88.3228 200.549 104.432C228.888 122.571 257.026 140.909 285.06 159.351C290.045 162.631 295.018 165.921 299.993 169.21C300.218 169.358 300.416 169.533 300.626 169.697C300.878 169.743 301.012 169.874 301.045 170.111C300.621 169.943 300.033 170.249 299.708 169.896Z" fill="#3B7F6E"/>
<path d="M320.702 132.616C319.437 132.201 318.536 131.391 317.493 130.742C312.623 127.711 307.801 124.63 302.953 121.577C298.912 119.031 294.881 116.473 290.807 113.961C284.683 110.184 278.576 106.392 272.394 102.675C269.328 100.83 266.294 98.9502 263.222 97.1106C258.372 94.2022 253.529 91.2874 248.67 88.3887C244.875 86.1237 241.077 83.8617 237.254 81.6275C233.48 79.4196 229.677 77.2425 225.88 75.0606C222.454 73.0926 219.036 71.1149 215.581 69.1796C211.483 66.8819 207.369 64.6021 203.227 62.3532C197.865 59.4428 192.49 56.5453 187.084 53.6854C177.237 48.4775 167.198 43.5019 156.852 38.9C150.999 36.2974 145.024 33.8602 138.75 31.8611C135.566 30.8472 132.304 29.9556 128.803 29.5445C127.758 29.4199 126.696 29.4293 125.616 29.496C125.413 29.5093 125.072 29.7786 125.07 29.4153C125.067 29.0971 125.478 29.1912 125.644 29.1531C126.97 28.848 128.303 28.5385 129.637 28.347C130.338 28.2467 130.909 28.004 131.506 27.6849C136.025 25.2653 140.741 23.545 145.843 22.8049C149.296 22.3037 152.754 21.7542 156.21 21.2318C157.484 21.0415 158.763 21.0226 160.04 20.9253C160.089 20.8338 160.137 20.7439 160.185 20.654C159.688 20.6178 159.192 20.5798 158.695 20.5435C157.986 20.5683 157.276 20.5931 156.567 20.6179C153.916 20.6925 151.245 21.0749 148.583 21.3424C145.631 21.6424 142.723 21.6306 139.803 21.7152C137.355 21.7874 134.928 22.142 132.569 23.0774C125.705 25.8044 118.998 28.8243 112.677 32.5411C112.528 32.6287 112.384 32.7205 112.219 32.8241C119.35 33.3618 125.115 36.1018 130.969 38.6393C143.441 44.0453 155.18 50.3333 166.83 56.7186C190.489 69.6836 213.475 83.3715 236.299 97.2324C262.778 113.311 288.914 129.738 314.783 146.437C314.985 146.569 315.205 146.683 315.416 146.806C317.178 142.076 318.94 137.346 320.702 132.616Z" fill="#3B7F6E"/>
<path d="M331.183 106.352C330.314 106.09 329.682 105.553 328.983 105.109C322.613 101.077 316.191 97.1007 309.682 93.214C305.022 90.43 300.446 87.5561 295.781 84.7788C291.789 82.4 287.734 80.0901 283.686 77.772C278.323 74.7016 272.981 71.6064 267.553 68.6067C261.81 65.4325 256.007 62.3259 250.178 59.2491C240.333 54.0516 230.316 49.0631 220.066 44.3568C211.748 40.5378 203.276 36.9339 194.524 33.7145C189.183 31.7495 183.724 29.9641 178.06 28.5399C174.127 27.5513 170.119 26.6851 165.904 26.3457C162.886 26.1022 159.794 26.1858 156.681 26.4322C156.167 26.4745 155.654 26.5022 154.891 26.5521C155.872 25.69 156.966 25.6362 157.898 25.2884C158.847 24.9319 159.849 24.7113 160.834 24.4682C161.867 24.213 162.907 23.9312 163.944 23.7925C164.952 23.6592 165.961 23.6917 167.196 23.6436C164.262 22.5794 161.244 22.7555 158.193 23.3083C153.164 24.2194 148.204 25.5297 143.349 27.3161C143.248 27.3542 143.141 27.375 143.023 27.4072C143.422 27.9294 144.026 27.6248 144.508 27.6702C147.227 27.9238 149.891 28.3357 152.463 28.9434C154.55 29.4372 156.592 30.028 158.617 30.6387C161.997 31.659 165.323 32.7661 168.545 34.0361C171.067 35.0292 173.614 35.987 176.12 37.002C178.214 37.8518 180.272 38.7522 182.33 39.6507C185.373 40.9816 188.474 42.2412 191.415 43.6966C194.22 45.0843 197.071 46.4174 199.887 47.79C202.945 49.2813 205.978 50.8096 209.027 52.3125C210.986 53.277 212.895 54.327 214.832 55.3217C217.895 56.8965 220.942 58.4912 223.96 60.1168C226.256 61.3524 228.517 62.6369 230.821 63.8606C233.807 65.4453 236.722 67.1108 239.709 68.6939C241.936 69.8744 244.041 71.1969 246.224 72.4286C248.704 73.8303 251.232 75.1777 253.696 76.5957C255.938 77.8848 258.106 79.2527 260.336 80.5549C262.604 81.8789 264.931 83.1407 267.189 84.4762C270.909 86.6736 274.59 88.9136 278.297 91.1258C281.464 93.0162 284.671 94.864 287.815 96.7789C291.311 98.9079 294.745 101.102 298.227 103.246C300.859 104.867 303.542 106.433 306.169 108.059C308.461 109.48 310.701 110.955 312.976 112.394C315.052 113.705 317.18 114.963 319.22 116.31C321.215 117.625 323.408 118.74 325.262 120.201C325.428 120.331 325.745 120.329 325.992 120.388C327.722 115.71 329.453 111.032 331.183 106.352Z" fill="#3B7F6E"/>
<path d="M210.435 27.4206C206.501 27.2023 202.517 27.2158 198.544 27.1822C195.368 27.1566 192.199 27.0982 189.028 27.0526C188.721 27.211 188.88 27.3124 189.022 27.4153C190.911 27.4627 192.72 27.7343 194.517 28.0528C197.419 28.5637 200.298 29.1218 203.095 29.8572C206.238 30.6836 209.406 31.4628 212.426 32.5132C214.31 33.1694 216.31 33.6454 218.177 34.3254C220.167 35.0479 222.203 35.6966 224.18 36.436C227.279 37.5938 230.335 38.8185 233.378 40.0582C236.679 41.405 239.975 42.7587 243.214 44.1886C246.87 45.8028 250.48 47.478 254.072 49.1768C257.969 51.0208 261.842 52.8969 265.69 54.8014C268.735 56.3116 271.721 57.8941 274.728 59.4495C277.977 61.1305 281.248 62.7883 284.438 64.5395C287.374 66.1526 290.336 67.7356 293.24 69.3872C296.328 71.1435 299.491 72.8185 302.555 74.6015C305.833 76.508 309.183 78.3329 312.391 80.3177C315.59 82.2957 318.913 84.1432 322.163 86.0683C324.942 87.7162 327.703 89.3842 330.452 91.0636C332.354 92.2272 334.223 93.4254 336.106 94.6089C337.802 89.9904 339.497 85.3738 341.192 80.7553C340.046 80.5258 339.272 79.8334 338.389 79.3017C333.188 76.1709 327.881 73.1565 322.549 70.1703C313.874 65.3117 305.052 60.6236 296.056 56.1414C287.33 51.794 278.461 47.6307 269.343 43.7901C260.606 40.1122 251.707 36.6809 242.419 33.8312C237.806 32.4153 233.141 31.1134 228.331 30.0586C224.575 29.236 220.783 28.5168 216.892 28.0284C214.967 27.7879 212.999 27.6683 211.05 27.4936C210.819 27.5464 210.616 27.5156 210.435 27.4206Z" fill="#3B7F6E"/>
<path d="M270.086 32.7081C269.672 32.6652 269.258 32.6206 268.844 32.5778C268.267 32.6171 267.707 32.5981 267.184 32.4498C266.396 32.4719 265.636 32.4013 264.904 32.2398C264.488 32.2233 264.071 32.2085 263.655 32.192C261.452 32.0491 259.246 31.9172 257.047 31.758C253.814 31.5249 250.581 31.292 247.314 31.1869C246.69 31.1668 246.092 31.0311 245.481 30.9503C245.176 31.0926 245.368 31.1924 245.455 31.3027C248.535 31.6019 251.539 32.1181 254.473 32.7574C258.164 33.5595 261.825 34.4278 265.412 35.4582C268.978 36.4857 272.548 37.5005 276.04 38.6544C278.567 39.4902 281.1 40.3174 283.587 41.216C285.708 41.9838 287.729 42.9103 289.865 43.6553C293.09 44.7788 296.127 46.1682 299.232 47.4608C302.333 48.7529 305.373 50.1295 308.417 51.5009C311.475 52.88 314.475 54.3363 317.539 55.7086C319.804 56.7211 321.965 57.8765 324.152 58.9939C326.639 60.2635 329.105 61.5587 331.579 62.8454C333.966 64.0863 336.373 65.3035 338.731 66.5784C341.041 67.8278 343.3 69.1384 345.582 70.4219C346.98 66.5737 348.378 62.7256 349.777 58.8756C345.602 56.931 341.447 54.9606 337.25 53.0451C330.24 49.8482 323.061 46.8894 315.704 44.1888C310.023 42.1047 304.258 40.1532 298.32 38.4943C293.612 37.1778 288.845 35.9878 283.975 34.9807C279.81 34.1182 275.534 33.5718 271.305 32.8899C270.899 32.8293 270.492 32.7687 270.086 32.7081Z" fill="#3B7F6E"/>
<path d="M-1.2124 -3.26813C-1.1074 -3.26886 -1.02287 -3.28219 -0.950593 -3.26509C-0.913236 -3.25639 -0.907512 -3.19453 -0.887108 -3.15644C-0.975532 -3.1398 -1.06851 -3.11189 -1.14976 -3.11306C-1.17766 -3.11354 -1.18225 -3.19085 -1.2124 -3.26813ZM-60.851 -11.727C-53.543 -10.8628 -46.0121 -10.8627 -38.2948 -11.4328C-29.7508 -12.0645 -21.5566 -11.6125 -14.0845 -9.26091C-10.8143 -8.23124 -7.83246 -6.81548 -5.01772 -5.1879C-3.85577 -4.51609 -2.53153 -4.05689 -1.43553 -3.28476C-3.00257 -3.61672 -4.55228 -3.98535 -6.14425 -4.27446C-11.5744 -5.26097 -17.3489 -5.09502 -23.1602 -4.82504C-31.5946 -4.43357 -40.1034 -2.99568 -48.6485 -1.32805C-54.3222 -0.220946 -59.9913 0.615317 -65.6627 1.56469C-65.8403 1.59362 -66.1045 1.74215 -66.1792 1.4966C-66.87 3.21105 -67.5606 4.92505 -68.2512 6.63905C-67.6253 6.53073 -67.3248 6.91298 -66.9209 7.12755C-66.2664 7.47422 -65.5576 7.52784 -64.6752 7.28991C-57.6549 5.39477 -50.6096 3.8177 -43.5953 1.85524C-40.0262 0.856239 -36.441 0.102871 -32.872 -0.401342C-27.462 -1.16498 -22.0637 -1.83602 -16.6844 -2.28873C-14.4879 -2.47304 -12.2849 -2.66743 -10.1032 -2.78995C-8.26885 -2.89312 -6.45324 -2.80414 -4.63844 -2.78918C-2.19756 -2.76891 0.0390446 -2.29871 2.52845 -2.10734C-0.221207 -3.42109 -2.8832 -4.66723 -5.50788 -5.95524C-8.88996 -7.61349 -12.2249 -9.33157 -15.987 -10.4776C-17.9522 -11.0764 -19.9667 -11.578 -22.0657 -11.9334C-25.5346 -12.5207 -29.1206 -12.7602 -32.7835 -12.7834C-36.0722 -12.8039 -39.4259 -12.5171 -42.7534 -12.3651C-48.7735 -12.0902 -54.5248 -12.584 -60.1108 -13.5638C-60.3576 -12.9515 -60.6042 -12.3393 -60.851 -11.727Z" fill="#3B7F6E"/>
<path d="M355.144 45.8315C353.77 45.7381 352.595 45.222 351.339 44.8903C348.681 44.1852 345.949 43.6461 343.257 43.0204C339.994 42.2624 336.632 41.7432 333.289 41.1796C333.092 41.1462 332.918 41.0534 332.732 40.9885C332.418 41.0407 332.155 40.9786 331.938 40.8152C324.381 39.8057 316.757 39.0041 309.138 38.1876C308.381 38.1076 307.633 37.9976 306.881 37.9007C306.735 37.9372 306.683 38.0141 306.725 38.1295C309.737 38.5022 312.594 39.2448 315.517 39.8321C317.744 40.2794 319.94 40.7849 322.089 41.3957C325.762 42.4399 329.465 43.416 333.062 44.6122C335.686 45.4849 338.34 46.3186 340.963 47.197C343.237 47.9584 345.426 48.8684 347.648 49.7203C349.445 50.4074 351.234 51.1089 353.027 51.8032C353.732 49.8139 354.438 47.8227 355.144 45.8315Z" fill="#3B7F6E"/>
<path d="M21.5093 0.743474C12.0973 0.663865 3.66898 -1.48964 -3.77384 -5.75148C-7.57517 -7.92946 -11.3111 -10.2244 -15.6029 -11.6934C-20.1992 -13.2666 -25.0368 -14.2208 -30.2417 -14.3657C-35.2736 -14.5058 -40.385 -13.7818 -45.4768 -13.314C-50.8505 -12.8202 -55.9157 -13.4101 -60.9053 -14.2872C-61.1994 -14.3387 -61.4527 -14.4977 -61.7238 -14.6065C-61.7964 -14.4025 -61.8689 -14.1985 -61.9415 -13.9944C-58.1449 -13.471 -54.3928 -12.8078 -50.5424 -12.4728C-47.8454 -12.2381 -45.0265 -12.376 -42.2175 -12.6277C-39.9993 -12.8259 -37.8072 -12.8991 -35.6088 -12.9675C-30.8557 -13.116 -26.2458 -12.8466 -21.8331 -11.874C-19.2448 -11.3037 -16.8089 -10.4541 -14.4235 -9.50709C-9.62032 -7.59952 -5.20817 -5.12864 -0.709182 -2.78282C3.80388 -0.431897 8.77164 1.07983 14.2916 1.47063C16.6991 1.64083 19.1527 1.54715 21.6109 1.47065C23.1532 1.42274 24.709 1.2178 26.2419 1.19643C26.2986 1.15622 26.335 1.10585 26.3564 1.04578C25.1727 0.949008 23.9865 0.851638 22.8053 0.755219C22.3367 0.918795 21.9223 0.840617 21.5093 0.743474Z" fill="#3B7F6E"/>
<path d="M84.7539 3.50061C80.0582 3.6226 75.7715 5.36334 71.5769 7.39511C64.7316 10.7103 58.4167 14.7246 52.1518 18.8139C46.2619 22.6589 40.4977 26.6396 34.6515 30.5325C30.1582 33.524 25.62 36.471 20.9102 39.2131C18.9651 40.3462 17.0078 41.4075 14.6668 42.2381C16.2942 42.9748 17.7197 43.7186 19.2652 44.2849C20.1185 44.5997 21.0112 43.9121 21.8112 43.532C25.4828 41.7883 28.7437 39.5138 32.0953 37.3477C35.8996 34.8895 39.6212 32.3451 43.3071 29.7592C46.5555 27.4796 49.8753 25.2724 53.1634 23.0348C56.294 20.9048 59.4035 18.7545 62.5646 16.6583C64.3043 15.5037 66.1657 14.4843 67.9067 13.3316C69.6425 12.1818 71.4857 11.1618 73.3128 10.1625C75.3663 9.04172 77.4578 7.9347 79.656 7.00303C81.8833 6.05936 84.1101 5.17179 86.4618 4.64095C87.3723 4.43662 88.3009 4.35397 89.2189 4.21731C89.2424 4.12736 89.2659 4.03741 89.2894 3.94746C88.0558 3.78678 86.8222 3.62611 85.5866 3.46518C85.2951 3.57989 85.0236 3.54803 84.7539 3.50061Z" fill="#3B7F6E"/>
<path d="M74.9243 2.54515C71.1522 2.31617 67.4063 3.12004 63.7008 4.29344C59.2252 5.71321 55.0277 7.72525 50.8647 9.82099C43.7501 13.403 37.1559 17.6563 30.4745 21.8015C26.5781 24.2187 22.6877 26.6474 18.7155 28.9756C14.9124 31.2044 11.0385 33.3202 7.06926 35.3004C5.83766 35.9143 4.56724 36.4615 3.2435 37.074C4.82451 37.8007 6.33516 38.4954 7.8484 39.1887C8.49881 39.4863 9.13399 39.1168 9.74682 38.8781C11.0082 38.3877 12.1419 37.6889 13.3023 37.0288C14.6591 36.257 16.0945 35.5887 17.4313 34.7931C20.6889 32.854 23.9246 30.8909 27.0984 28.8459C29.5132 27.2915 31.9174 25.7217 34.3422 24.1792C37.1627 22.3837 39.9028 20.4951 42.7001 18.6738C44.0081 17.8235 45.3712 17.0402 46.7051 16.2197C48.7698 14.9505 50.7945 13.6287 52.8999 12.4158C55.1827 11.0977 57.5195 9.84463 59.8683 8.61953C64.2846 6.31569 68.7809 4.18241 73.7023 3.00193C74.1549 2.89369 74.7065 3.04295 75.0832 2.59928C75.0179 2.59781 74.9647 2.58032 74.9243 2.54515Z" fill="#3B7F6E"/>
<path d="M166.501 26.1017C164.992 25.5714 163.37 25.627 161.668 26.1017C163.216 26.4291 164.883 26.1365 166.501 26.1017Z" fill="#3B7F6E"/>
<path d="M45.7984 5.76258C47.3109 5.61516 48.8248 5.46982 50.4389 5.31345C48.8668 5.14811 47.3628 5.31938 45.7984 5.76258Z" fill="#3B7F6E"/>
<path d="M140.097 21.3023C140.102 21.3614 140.093 21.4205 140.073 21.4801C141.005 21.3927 141.936 21.3053 142.867 21.2196C142.87 21.2011 142.872 21.1844 142.871 21.1674C141.947 21.2124 141.022 21.2574 140.097 21.3023Z" fill="#3B7F6E"/>
</svg>
