<svg width="370" height="40" viewBox="0 0 370 40" fill="none" xmlns="http://www.w3.org/2000/svg">
<path d="M304.068 -0.471165C306.028 0.0219283 307.988 0.47976 309.944 1.07798C313.655 2.21404 317.201 3.8505 320.699 5.62835C326.521 8.58823 332.114 11.9765 337.772 15.2417C343.561 18.5801 349.398 21.8299 355.489 24.5439C357.509 25.4427 359.547 26.2807 361.603 27.0648C362.139 27.2693 362.521 27.2556 362.952 27.0341C364.509 26.2403 366.104 25.4989 367.69 24.7465C367.913 24.6417 368.211 24.5692 368.096 24.274C368.005 24.0379 367.679 24.0686 367.465 23.9945C362.982 22.4647 358.546 20.8046 354.183 18.8091C350.642 17.1894 347.14 15.5076 343.675 13.7079C340.899 12.2645 338.135 10.7891 335.344 9.37702C330.073 6.70991 324.802 4.01031 319.25 2.10555C317.914 1.64721 316.556 1.29906 315.117 0.873174C316.048 0.56694 317.105 0.985873 318.249 0.747717C315.313 -0.390518 312.617 -1.19217 309.862 -1.32212C309.8 -1.3581 309.765 -1.40618 309.759 -1.46661C313.838 -2.3138 318.001 -0.935136 322.198 0.701311C321.234 0.83164 320.132 0.549209 319.036 0.929969C321.417 1.29405 323.587 1.69049 325.752 2.34233C330.473 3.76628 335.049 5.73255 339.592 7.79756C347.513 11.3971 355.42 15.0432 363.585 17.8615C367.077 19.0678 370.602 20.1193 374.111 21.2558C374.478 21.3755 374.754 21.354 375.025 21.2228C376.857 20.3298 378.686 19.4323 380.531 18.5534C380.737 18.4557 381.004 18.3491 380.96 18.1608C380.907 17.9478 380.558 17.9244 380.328 17.852C376.154 16.5119 371.954 15.3739 367.776 14.0939C363.321 12.7306 358.888 11.2613 354.47 9.66066C347.552 7.15368 340.723 4.2366 333.692 2.25176C331.9 1.74499 330.091 1.3222 328.291 1.12175C328.03 1.09265 327.849 0.954189 327.627 0.900138C328.343 0.813279 329.054 0.726931 329.768 0.640327C325.512 -0.0547383 321.363 -1.78891 317.161 -2.36944C317.111 -2.45218 317.06 -2.53492 317.008 -2.61742C317.502 -2.64974 317.997 -2.68228 318.494 -2.71468C318.695 -2.63115 318.884 -2.61529 319.055 -2.68621C322.686 -2.34693 326.347 -1.48252 329.988 -1.03806C333.501 -0.607738 336.889 -0.605315 340.129 -1.17184C340.583 -1.0937 341.013 -1.10117 341.401 -1.23048C347.615 -2.18529 354.187 -1.21986 360.777 -0.142095C366.069 0.723597 371.358 1.49652 376.656 2.51111C381.517 3.44132 386.323 4.77133 391.098 6.50392C393.765 7.47057 396.459 8.29981 399.322 9.25005C397.955 9.89949 396.507 10.309 395.497 11.1291C393.753 12.547 391.808 11.7098 389.707 10.84C385.609 9.1396 381.42 7.92783 377.204 6.93377C374.093 6.20016 370.98 5.41 367.87 4.80434C363.415 3.93661 358.963 2.89724 354.515 1.87372C351.264 1.12494 348.014 0.463387 344.772 -0.0389451C342.83 -0.34003 340.907 -0.344284 338.983 -0.411295C336.152 -0.510117 333.628 0.0793676 330.982 0.401869C330.678 0.346238 330.408 0.361794 330.159 0.530241C330.511 0.699603 330.779 0.63048 331.05 0.584588C336.928 0.611444 342.82 2.15061 348.707 3.99303C358.309 6.99927 367.968 9.4851 377.616 12.0872C380.716 12.9239 383.794 13.9097 386.988 15.1409C386.702 15.2674 386.504 15.362 386.427 15.552C385.973 15.7548 386.423 16.027 386.575 16.2098C387.413 17.2169 388.024 18.2972 388.646 19.3814C388.986 19.9726 389.154 20.6299 389.75 21.1381C389.731 21.4447 389.933 21.6932 390.181 21.9308C390.116 22.0838 390.152 22.2074 390.386 22.2689C390.362 22.576 390.569 22.8256 390.822 23.0628C390.758 23.2867 390.874 23.4506 391.137 23.5637C391.127 23.7999 391.2 24.0176 391.454 24.1959C391.397 24.4204 391.503 24.5874 391.776 24.6961C392.465 26.4062 393.334 28.0773 394.357 29.7107C394.279 29.9432 394.39 30.1128 394.674 30.2287C394.692 30.567 394.798 30.8912 395.119 31.1736C395.032 31.4089 395.157 31.5751 395.437 31.6916C395.459 32.0294 395.56 32.3523 395.88 32.6349C395.795 32.8717 395.917 33.0401 396.204 33.1537C396.215 33.493 396.323 33.8151 396.642 34.0978C396.567 34.3869 396.693 34.6153 397.042 34.7786C397.037 35.0609 397.113 35.3299 397.405 35.5606C397.338 35.8486 397.459 36.0811 397.811 36.2405C397.802 36.5233 397.87 36.7935 398.172 37.0228C398.061 37.2662 398.199 37.4292 398.489 37.5426C398.514 37.8801 398.599 38.2066 398.937 38.4854C398.852 38.7774 398.982 39.0053 399.335 39.1664C399.33 39.4487 399.395 39.719 399.697 39.9467C399.636 40.2877 399.762 40.5785 400.171 40.7915C400.164 41.0741 400.214 41.3461 400.525 41.5744C400.462 41.9156 400.577 42.2111 400.998 42.4226C400.992 42.7622 401.095 43.0833 401.423 43.3664C401.354 43.7102 401.478 44.0011 401.897 44.2111C401.883 44.4946 401.944 44.7654 402.249 44.9944C402.172 45.3392 402.298 45.6298 402.721 45.8411C402.709 46.1829 402.825 46.5025 403.147 46.7864C403.072 47.131 403.203 47.4192 403.617 47.6334C403.612 47.9157 403.662 48.1877 403.974 48.4162C404.215 49.6034 405.044 50.6884 405.547 51.8302C405.679 52.1304 405.712 52.5083 406.171 52.6806C406.173 52.8966 406.167 53.115 406.431 53.292C406.39 53.7499 406.575 54.1508 407.072 54.4706C407.062 54.6896 407.067 54.9085 407.338 55.0848C407.31 55.5375 407.456 55.9449 407.974 56.2605C408.005 56.3553 408.04 56.4512 408.072 56.5476C408.101 57.1056 408.294 57.625 408.874 58.0471C408.889 58.1471 408.839 58.2537 408.983 58.3397C408.978 58.845 409.134 59.3115 409.698 59.6769C409.697 59.8362 409.671 59.9983 409.879 60.132C409.834 60.592 410.005 60.9963 410.528 61.308C410.528 61.4652 410.499 61.626 410.706 61.7581C410.667 62.2173 410.814 62.6263 411.348 62.9383C411.359 63.0942 411.324 63.2558 411.523 63.3905C411.349 63.6244 411.591 63.8696 411.703 64.0946C414.496 69.7179 417.305 75.3374 420.096 80.9608C424.293 89.4227 428.479 97.8874 432.665 106.351C435.258 111.597 437.841 116.845 440.433 122.09C443.731 128.768 447.039 135.446 450.33 142.125C452.369 146.262 454.379 150.406 456.408 154.545C459.513 160.876 462.616 167.204 465.728 173.532C466.741 175.585 467.781 177.631 468.806 179.679C436.068 183.652 403.327 187.625 370.588 191.598C370.558 191.351 370.536 191.105 370.499 190.857C369.202 181.898 367.785 172.926 366.635 163.982C364.655 148.569 362.84 133.172 360.961 117.768C360.008 109.957 358.908 102.125 358.164 94.3383C357.19 84.1928 356.503 74.0834 355.687 63.9568C355.567 62.4852 355.417 61.0101 355.281 59.5369C355.408 59.4387 355.397 59.3156 355.27 59.1737C355.459 58.8726 355.442 58.5273 355.279 58.1548C355.402 58.0535 355.393 57.9302 355.265 57.7865C355.448 57.4861 355.434 57.1439 355.274 56.7728C355.422 56.5076 355.433 56.2161 355.26 55.8913C355.445 55.5891 355.432 55.2467 355.267 54.8727C355.39 54.7729 355.386 54.6509 355.258 54.5056C355.438 54.2021 355.419 53.8605 355.262 53.4908C355.408 53.2259 355.421 52.934 355.252 52.6089C355.425 52.3044 355.415 51.9617 355.261 51.5899C355.377 51.4876 355.371 51.3656 355.247 51.2217C355.421 50.9189 355.411 50.5778 355.254 50.2082C355.398 49.9419 355.401 49.6494 355.241 49.3249C355.379 49.1873 355.394 49.0247 355.247 48.8265C355.391 48.3891 355.407 47.9273 355.238 47.4295C355.38 47.2912 355.387 47.1246 355.244 46.9257C355.383 46.6584 355.383 46.3644 355.234 46.0422C355.367 45.9052 355.383 45.7407 355.243 45.5434C355.379 45.1052 355.389 44.6425 355.228 44.147C355.368 44.0092 355.372 43.8411 355.239 43.6446C355.373 43.376 355.376 43.0836 355.226 42.7613C355.364 42.6236 355.369 42.4572 355.236 42.2625C355.704 39.1052 356.082 35.9159 356.684 32.8047C356.952 31.4311 358.084 30.4625 358.841 29.3215C358.924 29.1958 359.021 29.0908 359.029 28.8719C358.124 28.8315 357.667 29.4366 356.944 29.6242C356.665 29.6981 356.5 29.7164 356.141 29.568C353.761 28.5833 351.455 27.4095 349.158 26.2401C347.591 25.4434 346.071 24.5133 344.523 23.6746C342.519 22.5888 340.566 21.4301 338.626 20.2524C335.762 18.5158 332.908 16.7608 330.102 14.9347C325.548 11.968 320.888 9.17879 316.191 6.44751C310.999 3.42798 305.604 0.955288 299.958 -0.791923C299.661 -0.882847 299.434 -0.972236 299.16 -1.24073C300.252 -1.11344 301.279 -0.993778 302.308 -0.874388C302.889 -0.610506 303.478 -0.555466 304.068 -0.471165Z" fill="#3B7F6E"/>
<path d="M300.252 83.6896C300.198 83.7591 300.144 83.8268 300.09 83.8963C299.946 84.085 299.791 84.2682 299.864 84.5342C299.843 84.5871 299.824 84.6382 299.803 84.6911C299.493 84.9033 299.505 85.2535 299.418 85.556C297.421 92.6748 295.427 99.795 293.438 106.916C291.912 112.379 290.153 117.779 288.924 123.326C286.144 135.872 283.626 148.492 281.008 161.085C278.651 172.436 276.259 183.777 273.975 195.148C273.079 199.615 272.438 204.148 271.679 208.649C250.653 211.403 229.627 214.157 208.6 216.911C209.142 214.995 210.007 213.197 210.754 211.357C214.191 202.894 217.653 194.442 221.119 185.99C226.982 171.693 232.733 157.352 238.782 143.131C241.347 137.101 244.545 131.324 247.459 125.435C251.066 118.143 254.596 110.819 258.318 103.581C260.227 99.8688 262.759 96.4544 265.003 92.9025C267.652 88.7067 270.342 84.5333 273.007 80.3475C273.96 78.8536 275.3 77.6072 276.487 76.2646C279.307 73.081 282.17 69.9281 285.008 66.7576C285.343 66.3845 285.721 66.0561 286.154 65.762C289.159 63.7186 292.16 61.6704 295.152 59.6132C296.061 58.9898 297.151 58.5838 298.177 58.1063C298.663 57.8797 298.898 57.7379 298.195 57.324C284.987 49.5577 272.783 40.6565 260.149 32.2397C254.037 28.1655 247.816 24.22 240.942 21.1868C237.125 19.5032 233.204 18.1331 229.12 17.2903C227.833 17.0257 226.573 16.9793 225.315 17.0021C225.303 16.9534 225.296 16.9076 225.294 16.8593C227.001 16.3307 228.789 15.9664 230.603 15.6526C234.162 15.0374 237.734 15.7704 241.305 16.9958C247.045 18.9645 252.166 21.9451 257.203 25.0769C261.644 27.838 265.926 30.7741 270.193 33.7243C275.473 37.3738 280.67 41.1068 285.969 44.7293C290.15 47.587 294.379 50.3983 298.767 53.0173C300.078 53.7987 301.373 54.5978 302.663 55.4045C303.089 55.6709 303.354 55.6934 303.787 55.4652C304.951 54.8483 306.188 54.3154 307.433 53.7971C307.995 53.564 307.934 53.4317 307.381 53.1124C304.132 51.2263 300.952 49.2515 297.858 47.182C293.534 44.2895 289.242 41.3615 285.063 38.3115C281.639 35.8105 278.103 33.4196 274.613 30.9845C271.546 28.844 268.535 26.6373 265.384 24.5927C262.93 23.0011 260.427 21.4539 257.932 19.9056C255.744 18.5477 253.469 17.3502 251.152 16.224C248.125 14.7524 244.96 13.5589 241.646 12.9342C240.239 12.6696 238.794 12.5418 237.464 12.8875C237.399 12.8163 237.334 12.7451 237.269 12.6739C238.283 12.179 239.28 11.6671 240.338 11.2201C242.323 10.3778 244.495 10.1921 246.846 10.6639C250.103 11.3187 253.14 12.6226 256.091 14.1076C262.243 17.2043 267.857 20.9763 273.418 24.8037C282.366 30.9636 291.018 37.4309 300.016 43.5392C303.791 46.0999 307.621 48.5962 311.604 50.9112C312.315 51.3241 312.848 51.3895 313.503 51.0472C314.682 50.4336 315.942 49.9132 317.162 49.3445C317.504 49.1853 317.888 49.0345 317.161 48.6931C312.21 46.3644 307.914 43.2151 303.5 40.2287C295.163 34.5867 287.159 28.5959 278.891 22.8807C273.142 18.908 267.337 14.9999 260.995 11.7566C258.334 10.3948 255.591 9.21517 252.688 8.41013C250.928 7.92318 249.177 7.7453 247.358 7.9628C251.586 5.44908 256.233 5.95983 261.176 8.01747C266.661 10.3005 271.647 13.2951 276.546 16.4415C283.489 20.899 290.091 25.7182 296.813 30.4073C301.309 33.5424 305.781 36.7033 310.331 39.7793C313.06 41.6244 315.917 43.3315 318.722 45.0938C319.61 45.6533 320.6 46.0436 321.584 46.4363C321.972 46.5916 322.368 46.7044 321.864 47.0997C320.032 48.5371 318.271 50.0328 316.445 51.4763C315.972 51.8502 315.583 52.2633 315.273 52.7389C313.829 54.9591 312.422 57.2003 310.927 59.3925C308.668 62.7037 307.015 66.2665 305.697 69.9968C304.631 73.0096 303.284 75.9223 302.082 78.8872C301.445 80.4609 300.844 82.049 300.226 83.6306L300.205 83.675L300.252 83.6896Z" fill="#3B7F6E"/>
<path d="M58.7214 169.896C56.8551 170.835 54.9889 171.774 53.1227 172.713C52.6804 172.934 52.239 173.158 51.7974 173.381C50.035 168.649 48.2726 163.917 46.5103 159.186C46.9431 159.203 47.1341 158.918 47.4012 158.744C87.5761 132.496 128.156 106.657 169.438 81.5282C188.184 70.1163 207.022 58.8014 226.497 48.169C233.456 44.3704 240.461 40.622 247.98 37.4945C249.73 36.7668 251.499 36.0549 253.497 35.7105C254.382 35.5578 255.12 35.6988 255.964 36.2507C258.251 37.7461 260.385 39.3671 262.303 41.0818C252.179 45.5544 243.154 51.2317 233.995 56.7434C208.235 72.2444 183.043 88.3228 157.88 104.432C129.542 122.571 101.403 140.909 73.3692 159.351C68.3846 162.631 63.4116 165.921 58.4364 169.21C58.2113 169.358 58.0132 169.533 57.8032 169.697C57.5507 169.743 57.417 169.874 57.3841 170.111C57.8083 169.943 58.396 170.249 58.7214 169.896Z" fill="#3B7F6E"/>
<path d="M37.7272 132.616C38.9922 132.201 39.8935 131.391 40.9361 130.742C45.8064 127.711 50.6285 124.63 55.4765 121.577C59.5175 119.031 63.5482 116.473 67.6225 113.961C73.7461 110.184 79.8533 106.392 86.0347 102.675C89.1015 100.83 92.1355 98.9502 95.207 97.1106C100.057 94.2022 104.901 91.2874 109.759 88.3887C113.554 86.1237 117.352 83.8617 121.175 81.6275C124.949 79.4196 128.752 77.2425 132.549 75.0606C135.976 73.0926 139.393 71.1149 142.848 69.1796C146.946 66.8819 151.06 64.6021 155.202 62.3532C160.564 59.4428 165.939 56.5453 171.345 53.6854C181.192 48.4775 191.231 43.5019 201.577 38.9C207.43 36.2974 213.405 33.8602 219.679 31.8611C222.863 30.8472 226.126 29.9556 229.627 29.5445C230.672 29.4199 231.733 29.4293 232.814 29.496C233.017 29.5093 233.357 29.7786 233.359 29.4153C233.362 29.0971 232.951 29.1912 232.785 29.1531C231.46 28.848 230.126 28.5385 228.793 28.347C228.092 28.2467 227.521 28.004 226.923 27.6849C222.404 25.2653 217.688 23.545 212.586 22.8049C209.134 22.3037 205.675 21.7542 202.219 21.2318C200.945 21.0415 199.666 21.0226 198.39 20.9253C198.341 20.8338 198.292 20.7439 198.244 20.654C198.741 20.6178 199.237 20.5798 199.734 20.5435C200.444 20.5683 201.153 20.5931 201.862 20.6179C204.513 20.6925 207.184 21.0749 209.846 21.3424C212.798 21.6424 215.706 21.6306 218.627 21.7152C221.075 21.7874 223.502 22.142 225.86 23.0774C232.724 25.8044 239.431 28.8243 245.753 32.5411C245.901 32.6287 246.045 32.7205 246.21 32.8241C239.079 33.3618 233.315 36.1018 227.46 38.6393C214.988 44.0453 203.249 50.3333 191.599 56.7186C167.94 69.6836 144.954 83.3715 122.13 97.2324C95.6513 113.311 69.5148 129.738 43.6463 146.437C43.444 146.569 43.2246 146.683 43.0132 146.806C41.2512 142.076 39.4892 137.346 37.7272 132.616Z" fill="#3B7F6E"/>
<path d="M27.2457 106.352C28.1149 106.09 28.7469 105.553 29.4459 105.109C35.8157 101.077 42.2379 97.1007 48.7469 93.214C53.4073 90.43 57.9828 87.5561 62.6485 84.7788C66.6401 82.4 70.6951 80.0901 74.7427 77.772C80.1063 74.7016 85.4487 71.6064 90.8757 68.6067C96.6189 65.4325 102.423 62.3259 108.251 59.2491C118.096 54.0516 128.113 49.0631 138.363 44.3568C146.681 40.5378 155.153 36.9339 163.905 33.7145C169.247 31.7495 174.706 29.9641 180.37 28.5399C184.302 27.5513 188.31 26.6851 192.525 26.3457C195.543 26.1022 198.635 26.1858 201.748 26.4322C202.262 26.4745 202.775 26.5022 203.538 26.5521C202.557 25.69 201.463 25.6362 200.532 25.2884C199.583 24.9319 198.58 24.7113 197.595 24.4682C196.562 24.213 195.522 23.9312 194.485 23.7925C193.477 23.6592 192.468 23.6917 191.234 23.6436C194.167 22.5794 197.185 22.7555 200.236 23.3083C205.265 24.2194 210.225 25.5297 215.08 27.3161C215.181 27.3542 215.288 27.375 215.406 27.4072C215.008 27.9294 214.403 27.6248 213.922 27.6702C211.202 27.9238 208.538 28.3357 205.967 28.9434C203.879 29.4372 201.838 30.028 199.813 30.6387C196.433 31.659 193.106 32.7661 189.884 34.0361C187.362 35.0292 184.815 35.987 182.309 37.002C180.215 37.8518 178.157 38.7522 176.099 39.6507C173.057 40.9816 169.955 42.2412 167.014 43.6966C164.209 45.0843 161.358 46.4174 158.542 47.79C155.484 49.2813 152.451 50.8096 149.402 52.3125C147.443 53.277 145.534 54.327 143.597 55.3217C140.534 56.8965 137.487 58.4912 134.47 60.1168C132.174 61.3524 129.912 62.6369 127.608 63.8606C124.622 65.4453 121.708 67.1108 118.72 68.6939C116.493 69.8744 114.388 71.1969 112.205 72.4286C109.726 73.8303 107.197 75.1777 104.733 76.5957C102.492 77.8848 100.323 79.2527 98.0936 80.5549C95.8251 81.8789 93.4983 83.1407 91.24 84.4762C87.52 86.6736 83.8393 88.9136 80.1323 91.1258C76.9647 93.0162 73.7577 94.864 70.6139 96.7789C67.1177 98.9079 63.684 101.102 60.202 103.246C57.5703 104.867 54.8871 106.433 52.2606 108.059C49.968 109.48 47.7286 110.955 45.4532 112.394C43.3777 113.705 41.2493 114.963 39.2095 116.31C37.2142 117.625 35.021 118.74 33.1673 120.201C33.0015 120.331 32.6843 120.329 32.437 120.388C30.7068 115.71 28.9766 111.032 27.2457 106.352Z" fill="#3B7F6E"/>
<path d="M147.994 27.4206C151.928 27.2023 155.912 27.2158 159.885 27.1822C163.061 27.1566 166.23 27.0982 169.401 27.0526C169.708 27.211 169.549 27.3124 169.407 27.4153C167.519 27.4627 165.709 27.7343 163.913 28.0528C161.01 28.5637 158.131 29.1218 155.334 29.8572C152.191 30.6836 149.024 31.4628 146.003 32.5132C144.119 33.1694 142.119 33.6454 140.252 34.3254C138.263 35.0479 136.226 35.6966 134.249 36.436C131.15 37.5938 128.094 38.8185 125.051 40.0582C121.75 41.405 118.454 42.7587 115.215 44.1886C111.56 45.8028 107.949 47.478 104.358 49.1768C100.46 51.0208 96.5876 52.8969 92.7397 54.8014C89.6944 56.3116 86.708 57.8941 83.7011 59.4495C80.4517 61.1305 77.181 62.7883 73.9917 64.5395C71.0549 66.1526 68.0932 67.7356 65.1889 69.3872C62.1013 71.1435 58.9387 72.8185 55.8737 74.6015C52.5966 76.508 49.2466 78.3329 46.0385 80.3177C42.8396 82.2957 39.516 84.1432 36.2664 86.0683C33.4874 87.7162 30.726 89.3842 27.9768 91.0636C26.0747 92.2272 24.2065 93.4254 22.3232 94.6089C20.6276 89.9904 18.9327 85.3738 17.237 80.7553C18.3827 80.5258 19.1572 79.8334 20.0402 79.3017C25.2416 76.1709 30.5481 73.1565 35.8798 70.1703C44.5557 65.3117 53.377 60.6236 62.3732 56.1414C71.0997 51.794 79.9685 47.6307 89.0863 43.7901C97.8228 40.1122 106.723 36.6809 116.01 33.8312C120.623 32.4153 125.288 31.1134 130.098 30.0586C133.854 29.236 137.646 28.5168 141.537 28.0284C143.462 27.7879 145.43 27.6683 147.379 27.4936C147.611 27.5464 147.813 27.5156 147.994 27.4206Z" fill="#3B7F6E"/>
<path d="M88.343 32.7081C88.7574 32.6652 89.1712 32.6206 89.5856 32.5778C90.1623 32.6171 90.7225 32.5981 91.2452 32.4498C92.0334 32.4719 92.793 32.4013 93.5248 32.2398C93.9411 32.2233 94.3578 32.2085 94.7739 32.192C96.9772 32.0491 99.1834 31.9172 101.382 31.758C104.616 31.5249 107.848 31.292 111.115 31.1869C111.74 31.1668 112.337 31.0311 112.948 30.9503C113.254 31.0926 113.062 31.1924 112.974 31.3027C109.895 31.6019 106.891 32.1181 103.956 32.7574C100.266 33.5595 96.6037 34.4278 93.0168 35.4582C89.451 36.4857 85.8811 37.5005 82.3889 38.6544C79.8624 39.4902 77.3293 40.3174 74.8427 41.216C72.7208 41.9838 70.6997 42.9103 68.5644 43.6553C65.3389 44.7788 62.302 46.1682 59.197 47.4608C56.0962 48.7529 53.0564 50.1295 50.0127 51.5009C46.9541 52.88 43.9545 54.3363 40.8902 55.7086C38.6249 56.7211 36.4641 57.8765 34.2771 58.9939C31.7897 60.2635 29.3238 61.5587 26.8502 62.8454C24.4633 64.0863 22.0559 65.3035 19.6979 66.5784C17.3878 67.8278 15.1291 69.1384 12.8477 70.4219C11.4494 66.5737 10.0511 62.7256 8.65223 58.8756C12.8268 56.931 16.9822 54.9606 21.179 53.0451C28.1888 49.8482 35.3687 46.8894 42.7251 44.1888C48.4064 42.1047 54.1707 40.1532 60.1088 38.4943C64.8177 37.1778 69.5841 35.9878 74.454 34.9807C78.619 34.1182 82.8956 33.5718 87.1246 32.8899C87.5307 32.8293 87.9369 32.7687 88.343 32.7081Z" fill="#3B7F6E"/>
<path d="M359.642 -3.26813C359.537 -3.26886 359.452 -3.28219 359.38 -3.26509C359.342 -3.25639 359.337 -3.19453 359.316 -3.15644C359.405 -3.1398 359.498 -3.11189 359.579 -3.11306C359.607 -3.11354 359.611 -3.19085 359.642 -3.26813ZM419.28 -11.727C411.972 -10.8628 404.441 -10.8627 396.724 -11.4328C388.18 -12.0645 379.986 -11.6125 372.514 -9.26091C369.243 -8.23124 366.262 -6.81548 363.447 -5.1879C362.285 -4.51609 360.961 -4.05689 359.865 -3.28476C361.432 -3.61672 362.981 -3.98535 364.573 -4.27446C370.004 -5.26097 375.778 -5.09502 381.589 -4.82504C390.024 -4.43357 398.533 -2.99568 407.078 -1.32805C412.751 -0.220946 418.421 0.615317 424.092 1.56469C424.27 1.59362 424.534 1.74215 424.608 1.4966C425.299 3.21105 425.99 4.92505 426.68 6.63905C426.055 6.53073 425.754 6.91298 425.35 7.12755C424.696 7.47422 423.987 7.52784 423.104 7.28991C416.084 5.39477 409.039 3.8177 402.025 1.85524C398.455 0.856239 394.87 0.102871 391.301 -0.401342C385.891 -1.16498 380.493 -1.83602 375.114 -2.28873C372.917 -2.47304 370.714 -2.66743 368.532 -2.78995C366.698 -2.89312 364.882 -2.80414 363.068 -2.78918C360.627 -2.76891 358.39 -2.29871 355.901 -2.10734C358.65 -3.42109 361.312 -4.66723 363.937 -5.95524C367.319 -7.61349 370.654 -9.33157 374.416 -10.4776C376.381 -11.0764 378.396 -11.578 380.495 -11.9334C383.964 -12.5207 387.55 -12.7602 391.213 -12.7834C394.501 -12.8039 397.855 -12.5171 401.183 -12.3651C407.203 -12.0902 412.954 -12.584 418.54 -13.5638C418.787 -12.9515 419.033 -12.3393 419.28 -11.727Z" fill="#3B7F6E"/>
<path d="M3.28568 45.8315C4.65878 45.7381 5.83384 45.222 7.08999 44.8903C9.74819 44.1852 12.4798 43.6461 15.1723 43.0204C18.435 42.2624 21.7971 41.7432 25.1402 41.1796C25.3374 41.1462 25.5116 41.0534 25.6967 40.9885C26.0109 41.0407 26.2739 40.9786 26.4912 40.8152C34.0478 39.8057 41.6719 39.0041 49.2911 38.1876C50.0483 38.1076 50.796 37.9976 51.5477 37.9007C51.6938 37.9372 51.7463 38.0141 51.7046 38.1295C48.6919 38.5022 45.8349 39.2448 42.912 39.8321C40.6849 40.2794 38.4894 40.7849 36.3397 41.3957C32.6674 42.4399 28.9638 43.416 25.3668 44.6122C22.7429 45.4849 20.0897 46.3186 17.4666 47.197C15.1917 47.9584 13.0033 48.8684 10.7814 49.7203C8.98401 50.4074 7.19494 51.1089 5.40186 51.8032C4.6969 49.8139 3.99129 47.8227 3.28568 45.8315Z" fill="#3B7F6E"/>
<path d="M423.747 -4.09773C420.724 -4.28723 417.698 -4.50724 414.684 -4.66057C408.242 -4.98787 401.724 -6.10926 395.244 -6.83545C387.288 -7.72685 379.516 -7.77213 372.027 -6.68324C370.011 -6.38995 368.116 -5.8556 366.429 -5.48894C368.334 -6.5121 370.721 -7.2435 373.173 -7.87083C377.639 -9.01315 382.389 -9.35778 387.215 -9.53015C393.558 -9.75672 400.091 -8.73756 406.527 -8.33478C411.804 -8.0043 416.967 -8.20801 422.123 -8.40129C422.664 -6.96701 423.205 -5.53225 423.747 -4.09773Z" fill="#3B7F6E"/>
<path d="M336.92 0.743474C346.332 0.663865 354.76 -1.48964 362.203 -5.75148C366.004 -7.92946 369.74 -10.2244 374.032 -11.6934C378.628 -13.2666 383.466 -14.2208 388.671 -14.3657C393.703 -14.5058 398.814 -13.7818 403.906 -13.314C409.28 -12.8202 414.345 -13.4101 419.334 -14.2872C419.629 -14.3387 419.882 -14.4977 420.153 -14.6065C420.226 -14.4025 420.298 -14.1985 420.371 -13.9944C416.574 -13.471 412.822 -12.8078 408.972 -12.4728C406.275 -12.2381 403.456 -12.376 400.647 -12.6277C398.429 -12.8259 396.236 -12.8991 394.038 -12.9675C389.285 -13.116 384.675 -12.8466 380.262 -11.874C377.674 -11.3037 375.238 -10.4541 372.853 -9.50709C368.05 -7.59952 363.637 -5.12864 359.138 -2.78282C354.625 -0.431897 349.658 1.07983 344.138 1.47063C341.73 1.64083 339.276 1.54715 336.818 1.47065C335.276 1.42274 333.72 1.2178 332.187 1.19643C332.131 1.15622 332.094 1.10585 332.073 1.04578C333.257 0.949008 334.443 0.851638 335.624 0.755219C336.092 0.918795 336.507 0.840617 336.92 0.743474Z" fill="#3B7F6E"/>
<path d="M273.675 3.50061C278.371 3.6226 282.658 5.36334 286.852 7.39511C293.698 10.7103 300.012 14.7246 306.277 18.8139C312.167 22.6589 317.931 26.6396 323.778 30.5325C328.271 33.524 332.809 36.471 337.519 39.2131C339.464 40.3462 341.421 41.4075 343.762 42.2381C342.135 42.9748 340.709 43.7186 339.164 44.2849C338.311 44.5997 337.418 43.9121 336.618 43.532C332.946 41.7883 329.686 39.5138 326.334 37.3477C322.53 34.8895 318.808 32.3451 315.122 29.7592C311.874 27.4796 308.554 25.2724 305.266 23.0348C302.135 20.9048 299.026 18.7545 295.865 16.6583C294.125 15.5037 292.263 14.4843 290.523 13.3316C288.787 12.1818 286.944 11.1618 285.116 10.1625C283.063 9.04172 280.971 7.9347 278.773 7.00303C276.546 6.05936 274.319 5.17179 271.967 4.64095C271.057 4.43662 270.128 4.35397 269.21 4.21731C269.187 4.12736 269.163 4.03741 269.14 3.94746C270.373 3.78678 271.607 3.62611 272.843 3.46518C273.134 3.57989 273.406 3.54803 273.675 3.50061Z" fill="#3B7F6E"/>
<path d="M283.505 2.54515C287.277 2.31617 291.023 3.12004 294.728 4.29344C299.204 5.71321 303.402 7.72525 307.565 9.82099C314.679 13.403 321.273 17.6563 327.955 21.8015C331.851 24.2187 335.742 26.6474 339.714 28.9756C343.517 31.2044 347.391 33.3202 351.36 35.3004C352.592 35.9143 353.862 36.4615 355.186 37.074C353.605 37.8007 352.094 38.4954 350.581 39.1887C349.93 39.4863 349.295 39.1168 348.682 38.8781C347.421 38.3877 346.287 37.6889 345.127 37.0288C343.77 36.257 342.335 35.5887 340.998 34.7931C337.74 32.854 334.505 30.8909 331.331 28.8459C328.916 27.2915 326.512 25.7217 324.087 24.1792C321.267 22.3837 318.526 20.4951 315.729 18.6738C314.421 17.8235 313.058 17.0402 311.724 16.2197C309.659 14.9505 307.635 13.6287 305.529 12.4158C303.246 11.0977 300.91 9.84463 298.561 8.61953C294.145 6.31569 289.648 4.18241 284.727 3.00193C284.274 2.89369 283.723 3.04295 283.346 2.59928C283.411 2.59781 283.464 2.58032 283.505 2.54515Z" fill="#3B7F6E"/>
<path d="M191.928 26.1017C193.438 25.5714 195.059 25.627 196.762 26.1017C195.213 26.4291 193.546 26.1365 191.928 26.1017Z" fill="#3B7F6E"/>
<path d="M312.631 5.76258C311.118 5.61516 309.604 5.46982 307.99 5.31345C309.562 5.14811 311.066 5.31938 312.631 5.76258Z" fill="#3B7F6E"/>
<path d="M218.332 21.3023C218.328 21.3614 218.336 21.4205 218.356 21.4801C217.424 21.3927 216.493 21.3053 215.562 21.2196C215.559 21.2011 215.558 21.1844 215.558 21.1674C216.482 21.2124 217.407 21.2574 218.332 21.3023Z" fill="#3B7F6E"/>
</svg>
