<svg width="203" height="30" viewBox="0 0 203 30" fill="none" xmlns="http://www.w3.org/2000/svg">
<path d="M33.607 16.2876C33.4087 7.249 26.0789 0 17.0627 0C7.91966 0 0.5 7.46871 0.5 16.6711H7.12139C7.12139 24.0293 13.0542 30 20.3642 30C27.5486 30 33.4087 24.2304 33.607 17.036V16.2876ZM20.3642 23.3356C19.4947 23.3373 18.6334 23.1662 17.8297 22.832C17.026 22.4977 16.2957 22.007 15.6806 21.3879C15.0655 20.7688 14.5777 20.0335 14.2452 19.2241C13.9126 18.4147 13.7419 17.5471 13.7428 16.6711C13.7419 15.7951 13.9126 14.9276 14.2452 14.1182C14.5777 13.3088 15.0655 12.5734 15.6806 11.9543C16.2957 11.3352 17.026 10.8445 17.8297 10.5103C18.6334 10.176 19.4947 10.0049 20.3642 10.0067C21.2336 10.0049 22.0949 10.176 22.8986 10.5103C23.7023 10.8445 24.4326 11.3352 25.0477 11.9543C25.6629 12.5734 26.1507 13.3088 26.4832 14.1182C26.8157 14.9276 26.9864 15.7951 26.9856 16.6711C26.9864 17.5471 26.8157 18.4147 26.4832 19.2241C26.1507 20.0335 25.6629 20.7688 25.0477 21.3879C24.4326 22.007 23.7023 22.4977 22.8986 22.832C22.0949 23.1662 21.2336 23.3373 20.3642 23.3356ZM127.867 6.20772C122.098 6.20772 117.4 10.9015 117.4 16.6525C117.4 22.514 121.99 27.0972 127.867 27.0972C133.727 27.0972 138.335 22.514 138.335 16.6525C138.316 10.9001 133.636 6.20772 127.867 6.20772ZM127.867 22.7324C124.784 22.7324 122.534 19.9587 122.534 16.6711C122.534 13.3848 124.765 10.6085 127.867 10.6085C130.879 10.6085 133.146 13.4394 133.146 16.6711C133.146 19.9587 130.915 22.7324 127.867 22.7324ZM81.8797 6.66445L81.8625 8.98402C81.8625 8.98402 81.6259 8.69108 81.4263 8.4727C80.4483 7.28628 78.5425 6.22636 75.7671 6.22636C70.6326 6.22636 66.4417 10.9188 66.4417 16.6711C66.4417 22.4407 70.6326 27.1158 75.7671 27.1158C78.561 27.1158 80.447 26.0573 81.4263 24.8695C81.6259 24.6325 81.8625 24.3582 81.8625 24.3582L81.881 26.6778H86.96V6.66445H81.8797ZM82.1889 16.6711C82.1889 20.0852 80.1021 22.7337 76.946 22.7337C73.7899 22.7337 71.5762 20.0852 71.5762 16.6711C71.5762 13.257 73.7899 10.6085 76.946 10.6085C80.1021 10.5912 82.1889 13.2383 82.1889 16.6711C82.1889 16.6525 82.1889 16.6525 82.1889 16.6711ZM176.867 6.66445L176.848 8.98402C176.848 8.98402 176.612 8.69108 176.412 8.4727C175.433 7.28628 173.528 6.22636 170.753 6.22636C165.618 6.22636 161.429 10.9188 161.429 16.6711C161.429 22.4407 165.618 27.1158 170.753 27.1158C173.547 27.1158 175.433 26.0573 176.412 24.8695C176.612 24.6325 176.848 24.3582 176.848 24.3582L176.867 26.6778H181.946V6.66445H176.867ZM177.175 16.6711C177.175 20.0852 175.088 22.7337 171.932 22.7337C168.776 22.7337 166.562 20.0852 166.562 16.6711C166.562 13.257 168.776 10.6085 171.932 10.6085C175.088 10.5912 177.175 13.2383 177.175 16.6711C177.175 16.6525 177.175 16.6525 177.175 16.6711ZM58.8052 14.0053H63.9398C62.6869 9.11185 58.9863 6.20905 53.9985 6.20905C48.03 6.20905 43.5311 10.7004 43.5311 16.6525C43.5311 22.6045 48.03 27.0972 53.9985 27.0972C58.9863 27.0972 62.6869 24.1944 63.9398 19.3009H58.7867C57.8616 21.4008 56.2109 22.715 53.9985 22.715C50.8596 22.715 48.6643 20.0852 48.6643 16.6525C48.6643 13.2024 50.8596 10.5912 53.9985 10.5912C56.2109 10.5912 57.8801 11.9055 58.8052 14.0053ZM95.8678 6.66445H91.4946V26.6604H96.5921V14.3702L102.687 22.2224L108.746 14.3702V26.6604H113.843V6.66312H109.471L102.652 15.4461L95.8665 6.66312L95.8678 6.66445ZM160.177 6.66445H154.172L146.933 15.4474V6.66445H141.836V26.6604H146.933V18.024L155.007 26.6604H161.519L151.904 16.5087L160.177 6.66445ZM191.398 26.6604H196.496V10.9747H202.5V6.66445H185.411V10.9747H191.398V26.6604Z" fill="white"/>
</svg>
