<svg width="220" height="30" viewBox="0 0 220 30" fill="none" xmlns="http://www.w3.org/2000/svg">
<path d="M84.3462 9.30651L88.268 6.48155H75.1481V23.457H88.268V20.6321H78.8915V16.2843H86.8899V13.4563H78.8915V9.306L84.3462 9.30651ZM65.2428 13.0973H60.6873V9.30651H67.9617L71.8836 6.47795H56.9438V23.457H64.7607C69.1473 23.457 71.6611 21.5125 71.6611 18.1239C71.6611 14.8839 69.3802 13.0973 65.2428 13.0973ZM64.5923 20.6321H60.6873V15.9259H64.5923C66.9676 15.9259 68.0761 16.7137 68.0761 18.2792C68.0761 19.8781 66.9036 20.6321 64.5923 20.6321ZM98.8983 6.48155H91.7555V23.457H95.4984V18.648H98.8983C103.457 18.648 106.29 16.3044 106.29 12.5563C106.287 8.80868 103.457 6.48155 98.8983 6.48155ZM98.8175 15.823H95.4984V9.30651H98.8175C101.216 9.30651 102.537 10.4637 102.537 12.563C102.537 14.6628 101.216 15.823 98.8175 15.823ZM50.5155 19.782C49.5555 20.2993 48.4366 20.5729 47.284 20.5729C43.9083 20.5729 41.459 18.216 41.459 14.9693C41.459 11.7226 43.9083 9.36257 47.2846 9.36257C48.5614 9.36257 49.7066 9.71537 50.6907 10.404L53.3761 8.46926L53.1972 8.31754C51.6308 6.96909 49.535 6.25732 47.1392 6.25732C44.5415 6.25732 42.1829 7.11412 40.4985 8.67034C38.8041 10.2358 37.874 12.4411 37.874 14.8736C37.874 17.3196 38.8041 19.5541 40.4917 21.1695C42.1829 22.788 44.5383 23.6813 47.1193 23.6813C49.8178 23.6813 52.1763 22.7617 53.7737 21.0841L51.3512 19.3366L50.5155 19.782Z" fill="white"/>
<path d="M130.887 10.7007L125.314 19.7125H123.754L118.056 10.8195V23.4405H114.96V6.48459H118.872L124.616 15.7144L130.314 6.48459H133.98V23.4446H130.883V10.7007H130.887ZM153.845 23.4441H150.55L148.892 19.4224H140.944L139.31 23.4441H136.167L143.198 6.48459H146.715L153.845 23.4441ZM147.753 16.634L144.906 9.67881L142.059 16.634H147.753ZM159.141 18.1599V23.4405H156.045V6.48459H161.816C167.288 6.48459 169.616 8.39979 169.616 12.2271C169.616 16.1758 166.894 18.1635 161.816 18.1635H159.141V18.1599ZM159.141 15.3745H162.039C164.913 15.3745 166.399 14.455 166.399 12.151C166.399 10.0681 165.112 9.26687 162.09 9.26687H159.141V15.3745ZM175.883 23.4441H172.787V6.48459H175.883V13.6079H178.485L184.057 6.48511H187.821L181.21 14.5542L188.889 23.4472H184.923L178.632 16.1063H175.883V23.4441ZM194.182 16.1032V20.6588H203.346V23.4441H191.089V6.48459H203.077V9.26995H194.185V13.3148H202.16V16.1032H194.182ZM219.667 9.26995H213.821V23.4436H210.725V9.26995H204.98V6.48459H219.667V9.26995Z" fill="white"/>
<path d="M26.908 6.19558C27.6106 7.07862 28.2058 8.03893 28.6817 9.05705L15.1961 18.7277L9.56198 15.2912V11.1569L15.1961 14.5938L26.908 6.19558Z" fill="white"/>
<path d="M3.81526 14.9996C3.81526 14.8144 3.81999 14.6298 3.82943 14.4467L0.414357 14.2801C0.402816 14.5187 0.395996 14.7584 0.395996 14.9991C0.395996 18.9745 2.05212 22.5755 4.73119 25.1819L7.15217 22.8265C5.09264 20.8208 3.81526 18.0529 3.81526 14.9996Z" fill="white"/>
<path d="M15.1958 3.926C15.3868 3.926 15.5761 3.93269 15.7645 3.94143L15.9355 0.618124C15.6891 0.60644 15.4425 0.600438 15.1958 0.600124C11.2754 0.592792 7.51195 2.10948 4.73026 4.81777L7.15071 7.17319C9.28846 5.08978 12.1815 3.92209 15.1958 3.926Z" fill="white"/>
<path d="M15.196 26.0732C15.0055 26.0732 14.8162 26.0691 14.6278 26.0599L14.4568 29.3821C14.7018 29.3935 14.9484 29.4001 15.196 29.4001C19.2825 29.4001 22.983 27.7889 25.6615 25.1825L23.241 22.8271C21.1026 24.9093 18.21 26.0765 15.196 26.0732Z" fill="white"/>
<path d="M21.6137 5.85817L24.4927 3.79435C21.8569 1.72058 18.5766 0.593413 15.197 0.600127V3.92703C17.4854 3.92307 19.7218 4.59612 21.6137 5.85817Z" fill="white"/>
<path d="M29.9973 14.9996C29.9973 14.1186 29.9154 13.2572 29.7601 12.4189L26.5743 14.7034C26.5764 14.8016 26.579 14.8998 26.579 14.9986C26.579 18.2494 25.1312 21.1782 22.8293 23.2055L25.127 25.6767C28.1177 23.043 29.9973 19.2342 29.9973 14.9996Z" fill="white"/>
<path d="M15.1977 26.0731C11.8561 26.0731 8.84652 24.664 6.76233 22.4253L4.22332 24.6609C5.61443 26.1572 7.30933 27.3517 9.19918 28.1679C11.089 28.984 13.1321 29.4037 15.1972 29.4L15.1977 26.0731Z" fill="white"/>
<path d="M7.5645 6.79168L5.2668 4.32054C2.27507 6.95522 0.395996 10.7645 0.395996 14.9991L3.81526 14.9996C3.81631 11.7478 5.26313 8.81898 7.5645 6.79168Z" fill="white"/>
</svg>
