<svg width="152" height="39" viewBox="0 0 152 39" fill="none" xmlns="http://www.w3.org/2000/svg">
<path d="M101.615 26.8898C100.808 27.0611 99.6281 27.143 98.0715 27.143C96.7914 27.143 95.7785 26.9134 95.027 26.4494C94.2775 25.9864 93.9001 25.1469 93.9001 23.9393C93.9001 23.3248 94.0396 22.8043 94.32 22.3948C94.5959 21.9912 94.9654 21.6751 95.4245 21.4511C95.8829 21.2246 96.3961 21.0707 96.966 20.9874C97.5364 20.9019 98.0991 20.8603 98.6543 20.8603C99.2932 20.8603 99.8759 20.9019 100.406 20.9874C100.932 21.0707 101.336 21.1527 101.615 21.2388L101.615 26.8898ZM106.054 13.2867C105.76 12.201 105.277 11.2809 104.595 10.5255C103.915 9.76628 103.002 9.17194 101.866 8.75127C100.725 8.33038 99.3224 8.1189 97.6517 8.1189C96.2618 8.1189 94.9579 8.23035 93.7349 8.45821C92.5092 8.6798 91.5804 8.90696 90.9402 9.1344L91.5694 13.2665C92.1769 13.0417 92.9693 12.8438 93.9436 12.6765C94.9152 12.5076 95.9846 12.4236 97.1517 12.4236C98.0161 12.4236 98.7298 12.5343 99.3014 12.7612C99.8704 12.9876 100.327 13.3009 100.676 13.7097C101.023 14.115 101.263 14.5897 101.404 15.1216C101.543 15.6561 101.615 16.2198 101.615 16.8074V17.6566C100.92 17.4839 100.264 17.3655 99.6554 17.2912C99.0438 17.2263 98.4603 17.1891 97.9035 17.1891C96.7108 17.1891 95.5612 17.3092 94.464 17.5468C93.3661 17.7896 92.4007 18.1815 91.5694 18.7319C90.7345 19.2778 90.075 19.9843 89.5877 20.8602C89.1039 21.7296 88.8593 22.7976 88.8593 24.0654C88.8593 25.3879 89.0746 26.5004 89.5054 27.3972C89.9335 28.3006 90.5334 29.0321 91.2959 29.5926C92.0601 30.1537 92.9831 30.561 94.0689 30.8152C95.1517 31.0691 96.3489 31.1966 97.6517 31.1966C99.6282 31.1966 101.398 31.0757 102.97 30.8385C104.538 30.5961 105.711 30.3926 106.494 30.2255V16.8491C106.494 15.5577 106.347 14.3693 106.054 13.2867Z" fill="white"/>
<path d="M62.6612 26.8899C61.8542 27.0612 60.6717 27.1431 59.1149 27.1431C57.8348 27.1431 56.8232 26.9135 56.0712 26.4494C55.3211 25.9865 54.9488 25.147 54.9488 23.9394C54.9488 23.3249 55.0858 22.8044 55.3659 22.3948C55.6445 21.9913 56.0081 21.6752 56.4683 21.4511C56.9304 21.2247 57.4432 21.0708 58.0094 20.9875C58.5807 20.902 59.1432 20.8604 59.7018 20.8604C60.3368 20.8604 60.9227 20.902 61.4503 20.9875C61.9782 21.0708 62.3802 21.1528 62.6612 21.2389V26.8899ZM65.6416 10.5255C64.957 9.76628 64.0502 9.17194 62.9116 8.75127C61.7682 8.33038 60.3666 8.1189 58.6976 8.1189C57.3111 8.1189 56.0058 8.23035 54.7815 8.45821C53.5574 8.6798 52.6269 8.90696 51.9856 9.1344L52.6135 13.2665C53.2245 13.0417 54.0176 12.8438 54.9881 12.6765C55.9628 12.5076 57.0298 12.4236 58.2003 12.4236C59.0606 12.4236 59.7773 12.5343 60.3472 12.7612C60.9162 12.9876 61.3743 13.3009 61.7207 13.7097C62.0685 14.115 62.3117 14.5897 62.4501 15.1216C62.59 15.6561 62.6612 16.2198 62.6612 16.8074V17.6566C61.9662 17.4839 61.3115 17.3655 60.7039 17.2912C60.0878 17.2263 59.5066 17.1891 58.9493 17.1891C57.7532 17.1891 56.6073 17.3092 55.509 17.5468C54.416 17.7896 53.4464 18.1815 52.6133 18.7319C51.7789 19.2778 51.119 19.9843 50.6352 20.8602C50.146 21.7296 49.9043 22.7976 49.9043 24.0654C49.9043 25.3879 50.1178 26.5004 50.5483 27.3972C50.9802 28.3006 51.578 29.0321 52.343 29.5926C53.1065 30.1537 54.0305 30.561 55.1139 30.8152C56.1991 31.0691 57.3939 31.1966 58.6974 31.1966C60.6715 31.1966 62.4434 31.0757 64.0136 30.8385C65.5836 30.5961 66.7587 30.3926 67.5384 30.2255V16.8491C67.5384 15.5577 67.3923 14.3693 67.0993 13.2867C66.8083 12.201 66.3202 11.2809 65.6416 10.5255Z" fill="white"/>
<path d="M69.2699 12.8869H76.2728V30.6875H81.3186V12.8869H88.3629V8.6283H69.2699V12.8869Z" fill="white"/>
<path d="M25.6313 30.6884H31.6224C34.691 24.8697 36.177 19.3124 37.0481 13.1843H41.1361V30.6884H46.3044V8.62427H32.1334C31.7275 15.5534 29.6007 23.9183 25.6313 30.6884Z" fill="white"/>
<path d="M19.6731 25.9081C18.5083 26.2885 16.9929 26.4781 15.1329 26.4781C13.5741 26.4781 12.2399 26.2175 11.1303 25.6983C10.0178 25.1766 9.10134 24.4486 8.37849 23.507C7.65425 22.5624 7.11872 21.4456 6.77329 20.1543C6.42542 18.8595 6.25184 17.4414 6.25184 15.8888C6.25184 14.1429 6.47397 12.6143 6.91996 11.2893C7.36416 9.96941 7.98138 8.8729 8.77317 8.00215C9.56634 7.13182 10.5051 6.47256 11.5876 6.03942C12.6697 5.60391 13.8376 5.38511 15.0881 5.38511C16.5352 5.38511 17.874 5.57583 19.1134 5.95443C20.3492 6.33227 21.3013 6.73337 21.9678 7.15962L23.5093 2.81146C23.3148 2.69791 22.9821 2.51666 22.5089 2.26477C22.0374 2.01406 21.4413 1.77367 20.718 1.54623C19.9938 1.32046 19.1489 1.11796 18.173 0.93176C17.2008 0.74939 16.1152 0.660156 14.9212 0.660156C12.9495 0.660156 11.1011 0.994314 9.37846 1.67468C7.65439 2.34704 6.15599 3.33969 4.87584 4.64845C3.5961 5.95436 2.59002 7.55173 1.85338 9.43387C1.11874 11.3194 0.75 13.4833 0.75 15.9322C0.75 18.3822 1.06915 20.5465 1.70982 22.4286C2.34868 24.3142 3.2662 25.9081 4.46015 27.2164C5.65625 28.5252 7.11408 29.5146 8.83947 30.1923C10.5583 30.8647 12.5083 31.2048 14.6729 31.2048C15.7839 31.2048 16.8281 31.143 17.8017 31.0144C18.7698 30.8894 19.648 30.7199 20.4288 30.5087C21.2047 30.2944 21.8749 30.0787 22.4487 29.8506C23.018 29.629 23.4681 29.4052 23.8 29.1785L22.3864 24.8332C21.7451 25.1659 20.8423 25.5288 19.6731 25.9081Z" fill="white"/>
<path d="M123.637 13.2864C128.335 6.23917 136.216 2.80766 143.483 3.91281C140.485 1.86085 136.869 0.661865 132.976 0.661865C122.607 0.661865 114.202 9.16746 114.202 19.6604C114.202 26.2227 117.489 32.0077 122.488 35.4209C118.749 29.0169 118.939 20.335 123.637 13.2864Z" fill="white"/>
<path d="M151.121 14.7814H151.123C151.115 14.7488 151.104 14.7165 151.095 14.6828C151.042 14.4828 150.984 14.2841 150.924 14.0868C150.905 14.0235 150.888 13.9597 150.868 13.8972C150.792 13.6589 150.713 13.4224 150.629 13.1876C150.623 13.1688 150.616 13.1483 150.609 13.1296C150.516 12.8722 150.417 12.6176 150.314 12.3659C150.293 12.3134 150.27 12.263 150.248 12.2112C150.168 12.0209 150.085 11.8309 149.998 11.6431C149.958 11.5569 149.916 11.4708 149.875 11.3839C149.803 11.2339 149.729 11.0845 149.653 10.9369C149.604 10.8397 149.554 10.7435 149.503 10.6483C149.43 10.5121 149.357 10.378 149.281 10.2443C149.225 10.1457 149.17 10.0473 149.112 9.94935C149.034 9.81805 148.954 9.68855 148.873 9.55905C148.815 9.46494 148.759 9.37083 148.699 9.27769C148.598 9.12277 148.495 8.97001 148.39 8.81857C148.349 8.76089 148.313 8.70084 148.272 8.64386C146.869 8.30525 145.405 8.12573 143.899 8.12573C143.51 8.12573 143.124 8.14134 142.741 8.16523C142.714 8.16669 142.687 8.166 142.66 8.16809C142.66 8.16836 142.661 8.16983 142.661 8.1708C132.87 8.81683 125.125 17.0533 125.125 27.1249C125.125 30.1057 125.805 32.9265 127.014 35.4381C126.954 27.9994 131.421 20.5845 138.979 16.8703C140.769 15.9908 142.612 15.3806 144.459 15.0187C144.694 17.5632 144.494 20.2184 143.792 22.8689C141.678 30.8559 135.614 36.5999 128.634 38.1479C130.028 38.4824 131.48 38.6602 132.976 38.6602C143.344 38.6602 151.75 30.1539 151.75 19.6603C151.75 17.9733 151.529 16.3388 151.121 14.7814Z" fill="white"/>
</svg>
