<svg width="14" height="11" viewBox="0 0 14 11" fill="none" xmlns="http://www.w3.org/2000/svg">
<path d="M7.69733 1.13953L11.3912 4.83333H1.00065C0.632458 4.83333 0.333984 5.13187 0.333984 5.5C0.333984 5.8682 0.632458 6.16667 1.00065 6.16667H11.3912L7.69733 9.86053C7.437 10.1209 7.437 10.543 7.69733 10.8033C7.95773 11.0637 8.3798 11.0637 8.64013 10.8033L13.4721 5.97147C13.7324 5.71107 13.7324 5.289 13.4721 5.0286L8.64013 0.196727C8.50953 0.0661007 8.3382 0.00101386 8.167 0.0014672C8.12493 0.00158053 8.08286 0.00564723 8.0414 0.0136672C7.91533 0.0380739 7.795 0.0990941 7.69733 0.196727C7.437 0.457074 7.437 0.879187 7.69733 1.13953Z" fill="#1E1B22"/>
</svg>
