<svg width="128" height="30" viewBox="0 0 128 30" fill="none" xmlns="http://www.w3.org/2000/svg">
<path d="M0.284668 21.9681V20.065L7.22032 18.7836V22.0081C7.22032 23.7302 7.79147 24.8515 9.1786 24.8515C10.5655 24.8515 11.0552 23.8102 11.0552 22.6889V21.4475C11.0552 20.0858 10.7696 19.3648 9.21933 18.4439L4.56825 15.7206C1.54938 13.9585 0.529278 11.916 0.529278 8.79251V7.2705C0.529278 2.22469 4.60945 0.102051 9.1786 0.102051C14.4416 0.102051 17.9908 1.98435 17.9908 7.67076V9.41415L11.1776 10.6152V7.51084C11.1776 6.14921 10.6879 4.98793 9.1786 4.98793C7.99535 4.98793 7.34275 5.86888 7.34275 6.95042V8.15144C7.34275 9.31294 8.07681 10.2741 9.1786 10.9151L13.7885 13.5982C17.0934 15.5205 17.9908 17.3628 17.9908 20.286V22.9293C17.9908 26.8138 14.931 29.8976 9.13787 29.8976C3.54838 29.8976 0.284668 26.6536 0.284668 21.9681Z" fill="white"/>
<path d="M36.5028 0.782863L35.9526 6.38954H31.0765V29.2168H24.304V6.38954H18.8781V0.782863H36.5028Z" fill="white"/>
<path d="M52.6063 16.2807C54.6463 15.1608 55.87 13.0767 55.87 9.83212V8.67131C55.87 3.78748 53.3013 0.783662 46.6905 0.783662H38.2055V29.215H45.0204V17.9233H46.6524L49.3838 29.215H56.4821L52.6063 16.2807ZM48.8548 10.2735C48.8548 12.7169 48.2012 13.8371 46.2029 13.8371H45.0204V5.76984H46.2029C46.3759 5.76984 46.5383 5.77669 46.6905 5.78674C48.2774 5.92268 48.8548 6.76776 48.8548 8.81089V10.2735Z" fill="white"/>
<path d="M65.4075 23.6707H73.0367V29.2168H58.5945V0.782913H72.7513V6.32905H65.4075V12.0765H72.2207V17.0823H65.4075V23.6707Z" fill="white"/>
<path d="M82.6441 23.6707H90.2731V29.2168H75.8311V0.782913H89.9878V6.32905H82.6441V12.0765H89.4571V17.0823H82.6441V23.6707Z" fill="white"/>
<path d="M109.326 0.782863L108.776 6.38954H103.9V29.2168H97.1272V6.38954H91.7011V0.782863H109.326Z" fill="white"/>
<path d="M110.009 21.9681V19.7255L116.945 18.4439V22.0081C116.945 23.7302 117.516 24.8515 118.903 24.8515C120.29 24.8515 120.78 23.8102 120.78 22.6889V21.4475C120.78 20.0858 120.494 19.3648 118.944 18.4439L114.293 15.7206C111.274 13.9585 110.254 11.916 110.254 8.79251V7.2705C110.254 2.22469 114.334 0.102051 118.903 0.102051C124.166 0.102051 127.715 1.98435 127.715 7.67076V9.75387L120.902 10.9549V7.51084C120.902 6.14921 120.412 4.98793 118.903 4.98793C117.72 4.98793 117.067 5.86888 117.067 6.95042V8.15144C117.067 9.31294 117.801 10.2741 118.903 10.9151L123.513 13.5982C126.818 15.5205 127.715 17.3628 127.715 20.286V22.9293C127.715 26.8138 124.656 29.8976 118.862 29.8976C113.273 29.8976 110.009 26.6536 110.009 21.9681Z" fill="white"/>
</svg>
